<svg width="1024" height="1024" viewBox="0 0 1024 1024" fill="none" xmlns="http://www.w3.org/2000/svg">
<path d="M226.32 387.01L120.03 469.52" stroke="#C3B2A6" stroke-width="2"/>
<path d="M120.03 469.52C114.437 467.82 109.65 468.453 105.67 471.42C99.3967 476.087 97.2133 482.267 99.12 489.96C99.8867 493.04 101.547 495.637 104.1 497.75C108.11 501.06 112.11 501.27 117.23 501.59" stroke="#B4A69E" stroke-width="2"/>
<path d="M117.23 501.59L143.78 724.37" stroke="#C3B2A6" stroke-width="2"/>
<path d="M143.78 724.37C135.413 725.257 130.097 729.317 127.83 736.55C127.45 737.757 127.133 739.713 126.88 742.42C126.687 744.48 126.433 746.457 126.12 748.35" stroke="#B4A69E" stroke-width="2"/>
<path d="M126.12 748.35C121.127 748.257 116.357 748.203 111.81 748.19C106.05 748.17 102.07 748.607 99.87 749.5C95.7967 751.153 92.6167 753.68 90.33 757.08C89.13 758.867 87.82 762.29 86.4 767.35C83.5733 777.437 80.76 787.603 77.96 797.85" stroke="#AB9C95" stroke-width="2"/>
<path d="M77.96 797.85C77.4133 798.497 77.13 799.247 77.11 800.1C77.1019 800.347 77.1438 800.592 77.2332 800.823C77.3226 801.053 77.4576 801.263 77.6302 801.44C77.8028 801.617 78.0094 801.758 78.2379 801.854C78.4663 801.951 78.7119 802 78.96 802L945.1 802.04C945.458 802.039 945.807 801.936 946.107 801.743C946.407 801.55 946.644 801.274 946.79 800.95C947.097 800.283 947.137 799.697 946.91 799.19C946.49 798.263 945.773 797.8 944.76 797.8L911.39 797.76" stroke="#8E9292" stroke-width="2"/>
<path d="M911.39 797.76C911.81 793.787 912.007 788.283 911.98 781.25C911.793 726.27 911.6 673.603 911.4 623.25C911.387 619.09 911.343 614.923 911.27 610.75C911.14 602.86 903.5 598.88 896.67 597.78" stroke="#EBDECD" stroke-width="2"/>
<path d="M896.67 597.78L888.61 595" stroke="#D7CCBC" stroke-width="2"/>
<path d="M752.4 432.33L818.61 432.31C818.865 432.31 819.109 432.411 819.289 432.591C819.469 432.771 819.57 433.015 819.57 433.27L819.62 473.85C819.627 474.157 819.78 474.307 820.08 474.3L826.73 474.28C827.063 474.28 827.23 474.11 827.23 473.77L827.14 433.2C827.14 432.673 827.403 432.42 827.93 432.44C837.477 432.827 846.543 432.627 855.13 431.84" stroke="#AB9C95" stroke-width="2"/>
<path d="M855.13 431.84C862.91 431.073 870.7 430.79 878.5 430.99C882.12 431.083 883.927 429.303 883.92 425.65C883.813 366.43 883.82 306.17 883.94 244.87C883.95 239.85 879.68 239.79 876 239.86C855.65 240.25 834.08 239.84 812.99 239.93C777.41 240.077 741.83 240.073 706.25 239.92C703.377 239.907 701.49 239.97 700.59 240.11C697.75 240.537 696.34 242.333 696.36 245.5C696.607 287.42 696.72 329.087 696.7 370.5C696.7 376.753 696.657 382.983 696.57 389.19" stroke="#EBDECD" stroke-width="2"/>
<path d="M689.69 388.93C690.357 370.857 689.147 354.967 686.06 341.26C684.253 333.253 681.207 326.11 676.92 319.83C668.91 308.07 657.73 297.71 644.27 293.45C642.037 292.743 638.957 291.953 635.03 291.08" stroke="#8E9292" stroke-width="2"/>
<path d="M635.03 291.08C612.65 287.05 590.75 282.75 568.66 280.36C561.173 279.547 553.72 279.153 546.3 279.18C530.27 279.23 515.77 283.27 509.85 299.66C509.443 300.78 509.147 301.923 508.96 303.09C508.853 303.71 508.583 303.793 508.15 303.34C504.99 300.05 503.94 294.11 504.31 289.8C504.417 288.567 503.92 287.633 502.82 287C502.504 286.818 502.147 286.723 501.785 286.725C501.422 286.727 501.069 286.825 500.76 287.01C498.62 288.297 496.827 290 495.38 292.12C487.96 302.99 487.91 319.16 498 328.19C498.05 328.237 498.087 328.297 498.107 328.363C498.127 328.429 498.129 328.5 498.113 328.567C498.096 328.634 498.063 328.695 498.015 328.745C497.967 328.795 497.906 328.831 497.84 328.85C491.687 330.51 486.33 333.39 481.77 337.49C478.63 340.32 474.97 345.9 480.89 348.51C488.71 351.97 499.95 351.5 508.43 350.49" stroke="#8C897D" stroke-width="2"/>
<path d="M508.43 350.49C507.883 353.65 507.76 356.817 508.06 359.99C509.033 370.463 510.757 380.6 513.23 390.4" stroke="#F0D3B1" stroke-width="2"/>
<path d="M513.23 390.4L514.03 394.36C514.103 394.72 514.313 394.947 514.66 395.04L516.29 395.49" stroke="#8C897D" stroke-width="2"/>
<path d="M516.29 395.49C516.337 395.763 516.277 395.97 516.11 396.11C515.837 396.343 515.467 396.427 515 396.36" stroke="#F0D3B1" stroke-width="2"/>
<path d="M515 396.36C505.29 395.43 500.61 405.46 501.12 413.76C501.68 423.01 506.09 431.98 516.08 433.32" stroke="#8C897D" stroke-width="2"/>
<path d="M516.08 433.32C514.793 435.267 513.987 437.24 513.66 439.24C513.36 441.067 513.813 442.323 515.02 443.01C518.107 444.757 523.09 446.747 529.97 448.98" stroke="#F0D3B1" stroke-width="2"/>
<path d="M529.97 448.98C525.157 449.793 522.237 451.927 521.21 455.38C520.537 457.653 520.473 460.02 521.02 462.48C522.007 466.873 522.93 471.18 523.79 475.4C523.81 475.503 523.792 475.61 523.738 475.701C523.685 475.793 523.601 475.863 523.5 475.9C512.24 479.88 500.943 483.89 489.61 487.93C486.54 489.02 482.73 490.34 480.35 492.23C476.403 495.363 474.407 499.84 474.36 505.66C474.333 508.52 474.38 513.243 474.5 519.83C474.507 520.317 474.267 520.557 473.78 520.55C459.48 520.463 444.73 520.42 429.53 520.42C428.437 520.42 427.447 520.733 426.56 521.36C426.444 521.441 426.347 521.547 426.276 521.67C426.205 521.792 426.162 521.929 426.15 522.07L425.75 526.01C425.71 526.377 425.507 526.573 425.14 526.6L423.15 526.72C422.357 526.773 421.913 527.197 421.82 527.99L421.4 531.65C421.293 532.577 421.71 533.04 422.65 533.04L518.95 532.95C519.557 532.95 519.827 532.65 519.76 532.05L519.26 527.65C519.187 526.99 518.817 526.687 518.15 526.74L516.22 526.91C515.713 526.957 515.48 526.727 515.52 526.22L515.78 523.18C515.806 522.864 515.767 522.546 515.666 522.246C515.565 521.946 515.404 521.669 515.192 521.434C514.981 521.198 514.723 521.007 514.436 520.874C514.148 520.741 513.837 520.668 513.52 520.66C503.653 520.373 493.88 520.35 484.2 520.59C483.8 520.597 483.593 520.403 483.58 520.01C483.427 515.123 483.343 510.34 483.33 505.66C483.31 496.42 488.87 494.11 496.3 491.36C505.96 487.78 515.243 484.38 524.15 481.16C524.225 481.132 524.306 481.122 524.386 481.129C524.466 481.136 524.543 481.16 524.613 481.2C524.682 481.24 524.742 481.295 524.789 481.36C524.835 481.426 524.866 481.501 524.88 481.58C526.327 489.447 527.667 496.747 528.9 503.48C531.14 515.68 536.84 520.67 549.68 516.15C551.1 515.65 551.247 515.897 550.12 516.89C544.52 521.84 540.51 526.08 538.09 533.37C537.603 534.83 537.023 536.193 536.35 537.46" stroke="#8C897D" stroke-width="2"/>
<path d="M536.35 537.46C526.38 543.41 519.38 551.67 512.98 561.3" stroke="#AAC955" stroke-width="2"/>
<path d="M512.98 561.3C512.373 561.447 512.047 561.68 512 562C511.507 565.46 511.047 568.91 510.62 572.35" stroke="#8C897D" stroke-width="2"/>
<path d="M510.62 572.35L507.56 596.59" stroke="#AAC955" stroke-width="2"/>
<path d="M507.56 596.59C495.747 596.41 484.027 596.253 472.4 596.12C472.34 596.12 470.827 596.223 467.86 596.43C466.107 596.55 464.52 596.313 463.1 595.72" stroke="#E8D5B8" stroke-width="2"/>
<path d="M463.1 595.72C465.9 594.67 470.94 592.91 471.72 590.03C471.788 589.776 471.801 589.511 471.756 589.252C471.712 588.993 471.612 588.747 471.464 588.531C471.316 588.315 471.122 588.134 470.897 588.001C470.672 587.868 470.42 587.785 470.16 587.76C467.913 587.547 465.573 587.517 463.14 587.67C455.88 588.137 448.99 589.023 442.47 590.33C439.183 590.99 435.96 592.377 432.8 594.49C431.353 595.45 430.977 595.137 431.67 593.55C432.61 591.377 434.333 590.017 436.84 589.47C442.553 588.23 448.35 587.377 454.23 586.91C464.09 586.12 471.73 584.26 478.86 578.16C481.83 575.62 480.37 572.43 476.5 572.61C467.273 573.03 458.193 573.583 449.26 574.27C442.967 574.757 437.34 575.75 432.38 577.25C430.427 577.837 428.813 579.073 427.54 580.96C427.38 581.2 427.177 581.247 426.93 581.1C426.797 581.02 426.677 580.87 426.57 580.65" stroke="#F0D3B1" stroke-width="2"/>
<path d="M426.57 580.65C426.743 580.257 426.947 580.007 427.18 579.9" stroke="#B29D89" stroke-width="2"/>
<path d="M427.18 579.9C428.353 577.267 429.917 575.673 431.87 575.12C437.21 573.6 442.457 572.147 447.61 570.76C453.26 569.24 460.76 565.29 458.97 558.35C458.297 555.757 456.66 554.887 454.06 555.74C448.387 557.613 442.4 559.167 436.1 560.4C434.253 560.767 432.023 561.403 429.41 562.31C427.957 562.823 426.597 563.74 425.33 565.06C423.97 566.48 422.503 568.02 420.93 569.68" stroke="#F0D3B1" stroke-width="2"/>
<path d="M420.93 569.68L423.96 562.64" stroke="#D7B093" stroke-width="2"/>
<path d="M423.96 562.64C424.933 561.047 426.38 560.157 428.3 559.97C432.453 559.577 436.443 559.193 440.27 558.82C443.923 558.467 445.903 556.49 446.21 552.89C446.229 552.682 446.198 552.473 446.119 552.279C446.04 552.086 445.916 551.914 445.756 551.778C445.597 551.642 445.407 551.545 445.202 551.497C444.998 551.449 444.784 551.45 444.58 551.5C442.85 551.92 441.44 552.23 439.79 551.2C436.91 549.387 433.3 547.873 428.96 546.66C422.16 544.76 415.38 554.18 412.46 559.63C410.31 563.65 410.96 569.44 411.92 573.64C413.61 581.06 414.99 588.39 416.51 595.75C418.083 603.323 419.313 610.843 420.2 618.31C420.813 623.47 422.667 631.85 425.76 643.45" stroke="#F0D3B1" stroke-width="2"/>
<path d="M425.76 643.45C419.77 645.34 416.12 654.84 415.16 660.38C414.193 665.953 413.873 670.837 414.2 675.03" stroke="#AAC955" stroke-width="2"/>
<path d="M414.2 675.03C405.693 645.343 397.197 615.68 388.71 586.04C387.65 582.333 385.003 580.433 380.77 580.34" stroke="#AAC955" stroke-width="2"/>
<path d="M380.77 580.34L345.03 580.94" stroke="#C1A991" stroke-width="2"/>
<path d="M229.26 398.2L283.78 355.61" stroke="#C1A991" stroke-width="2"/>
<path d="M283.78 355.61L299.37 379.12C299.617 379.493 299.63 379.873 299.41 380.26C298.57 381.767 297.887 383.337 297.36 384.97C294.507 393.85 295.547 401.93 300.48 409.21C308.833 421.53 317.287 434.037 325.84 446.73" stroke="#B29D89" stroke-width="2"/>
<path d="M325.84 446.73C325.673 449.317 326.873 451.057 329.44 451.95C334.36 453.66 339.96 451.77 344.83 449.81C366.36 441.13 385.6 426.85 401.17 409.56C405.57 404.67 419.4 388.2 409.91 382.29" stroke="#E8D5B8" stroke-width="2"/>
<path d="M409.91 382.29C402.963 372.67 396.073 363.063 389.24 353.47C386.27 349.32 383.3 344.4 379.8 341.35C374.28 336.53 367.42 334.903 359.22 336.47C358.986 336.512 358.746 336.487 358.526 336.398C358.307 336.31 358.118 336.161 357.98 335.97C357.413 335.19 356.867 334.413 356.34 333.64C344.827 316.927 335.223 302.913 327.53 291.6C321.26 282.37 310.24 283.3 301.19 287.9C289.183 294.013 279.78 302.15 272.98 312.31C268.45 319.08 266.43 328.59 271.13 335.62C274.603 340.82 276.99 344.537 278.29 346.77" stroke="#B29D89" stroke-width="2"/>
<path d="M278.29 346.77L226.32 387.01" stroke="#C1A991" stroke-width="2"/>
<path d="M409.91 382.29C402.417 382.883 395.317 384.82 388.61 388.1C366.51 398.907 348.057 414.13 333.25 433.77C331.417 436.203 328.947 440.523 325.84 446.73" stroke="#A2866D" stroke-width="2"/>
<path d="M283.78 355.61L278.29 346.77" stroke="#7A5A47" stroke-width="2"/>
<path d="M612.08 388.72C601.093 391.953 590.097 395.187 579.09 398.42C579.01 398.447 577.087 398.933 573.32 399.88C570.32 400.64 567.42 401.74 564.62 403.18" stroke="#CF9771" stroke-width="2"/>
<path d="M564.62 403.18C563.28 400.507 561.56 398.013 559.46 395.7C558.54 394.69 557.34 394.22 556.23 393.49C555.677 393.123 555.733 392.94 556.4 392.94C561.487 392.947 566.937 392.983 572.75 393.05C573.97 393.063 575.09 392.877 576.11 392.49C576.45 392.36 576.743 392.131 576.952 391.833C577.16 391.535 577.274 391.181 577.28 390.817C577.285 390.453 577.181 390.096 576.982 389.792C576.782 389.487 576.496 389.25 576.16 389.11C575.173 388.697 574.11 388.397 572.97 388.21C563.957 386.723 554.54 386.477 544.72 387.47C542.793 387.663 541.117 388.25 539.69 389.23C537.47 390.75 539.01 393.25 540.96 393.96C541.413 394.12 541.453 394.35 541.08 394.65C537.233 397.777 535.407 402.05 535.6 407.47C535.613 407.843 535.433 408.047 535.06 408.08L525.89 408.85C525.543 408.877 525.33 408.723 525.25 408.39C524.743 406.197 523.833 403.803 522.52 401.21C520.933 398.077 518.427 396.46 515 396.36" stroke="#83705B" stroke-width="2"/>
<path d="M516.29 395.49L525.4 395.57C525.859 395.572 526.305 395.42 526.666 395.139C527.027 394.858 527.282 394.464 527.39 394.02C528.19 390.78 525.28 390.33 523.06 389.8C519.587 388.967 516.31 389.167 513.23 390.4" stroke="#83705B" stroke-width="2"/>
<path d="M380.77 580.34C381.37 583.88 381.86 587.33 382.83 590.76C389.65 615.087 396.33 639.45 402.87 663.85C414.757 708.23 425.68 748.62 435.64 785.02C437.27 791 434.47 793.42 431.99 797.84" stroke="#71513E" stroke-width="2"/>
<path d="M431.99 797.84L259.47 797.68" stroke="#54463B" stroke-width="2"/>
<path d="M613.17 391.19C612.543 393.743 612.293 395.967 612.42 397.86C612.647 401.387 613.31 409.233 614.41 421.4C615.42 432.49 608.49 440.12 602.73 449.16" stroke="#E0BC96" stroke-width="2"/>
<path d="M517.53 429.43C517.23 428.13 516.75 426.75 516.67 425.42C516.123 416.553 515.783 407.54 515.65 398.38" stroke="#F0D3B1" stroke-width="2"/>
<path d="M556.58 731.36C549.7 730.973 544.097 731.027 539.77 731.52C525.92 733.09 514.63 740.7 502.94 749.46" stroke="#B99977" stroke-width="2"/>
<path d="M502.94 749.46C502.447 732.593 502.03 715.867 501.69 699.28C501.483 689.613 500.907 680.273 499.96 671.26C498.76 659.93 495.57 649 490.62 638.64C490.574 638.543 490.553 638.436 490.558 638.329C490.562 638.222 490.593 638.118 490.647 638.025C490.701 637.932 490.777 637.854 490.868 637.798C490.96 637.741 491.063 637.708 491.17 637.7C493.21 637.54 495.333 637.43 497.54 637.37C504 637.21 503.16 632.06 503.95 627.57C504.023 627.183 504.257 626.99 504.65 626.99C517.26 626.9 529.34 617.79 529.49 604.29C529.563 597.403 529.663 590.14 529.79 582.5C529.97 571.78 523.37 564.88 513.52 561.95C513.32 561.883 513.167 561.76 513.06 561.58C512.993 561.467 512.967 561.373 512.98 561.3" stroke="#554F43" stroke-width="2"/>
<path d="M414.2 675.03L441.45 771.93" stroke="#715A46" stroke-width="2"/>
<path d="M441.45 771.93C441.663 774.823 442.247 777.677 443.2 780.49C444.59 784.57 445.79 788.16 450.84 788.2C461.507 788.293 472.663 788.167 484.31 787.82C485.517 787.78 486.307 787.397 486.68 786.67" stroke="#624536" stroke-width="2"/>
<path d="M486.68 786.67C492.853 788.73 499.477 788.727 506.55 786.66" stroke="#A07B5E" stroke-width="2"/>
<path d="M506.55 786.66C509.877 787.6 512.963 788.027 515.81 787.94C521.923 787.76 527.437 787.687 532.35 787.72C552.87 787.87 573.3 787.58 594.11 787.6C596.243 787.6 598.433 787.517 600.68 787.35C602.96 787.177 605.15 787.023 607.25 786.89" stroke="#624536" stroke-width="2"/>
<path d="M607.25 786.89C610.78 787.08 615.32 786.64 618.16 787.97C621.727 789.643 622.217 792.91 619.63 797.77" stroke="#AAC955" stroke-width="2"/>
<path d="M619.63 797.77L431.99 797.84" stroke="#AAC955" stroke-width="2"/>
<path d="M506.61 602.01L507.56 596.59" stroke="#B19B7D" stroke-width="2"/>
<path d="M502.94 749.46L498 753.92" stroke="#83705B" stroke-width="2"/>
<path d="M498 753.92C498.187 734.6 498.273 715.46 498.26 696.5C498.25 677.85 496.71 657.94 489.33 641.21C488.87 640.17 488.323 639.21 487.69 638.33C487.463 638.01 487.153 637.853 486.76 637.86L457.83 638.25" stroke="#554F43" stroke-width="2"/>
<path d="M439.31 610.81C439.243 608.117 439.757 605.997 440.85 604.45C442.54 602.07 445.51 602.29 448.25 602.31C459.163 602.383 478.617 602.283 506.61 602.01" stroke="#7C7262" stroke-width="2"/>
<path d="M506.61 602.01L505.05 616.33C505.003 616.73 505.177 616.88 505.57 616.78C512.61 614.95 518.7 611.29 518.96 603.12C519.16 596.707 519.373 589.8 519.6 582.4C519.76 576.91 515.3 573.8 510.62 572.35" stroke="#554F43" stroke-width="2"/>
<path d="M423.96 562.64C423.407 562.047 422.713 562.697 421.88 564.59C419.793 569.337 417.857 574.14 416.07 579C415.903 579.453 415.85 579.843 415.91 580.17C415.977 580.577 416.093 580.59 416.26 580.21L420.93 569.68" stroke="#CF9771" stroke-width="2"/>
<path d="M427.18 579.9C426.733 579.953 426.457 580.107 426.35 580.36C424.423 584.913 422.587 589.497 420.84 594.11C420.8 594.217 420.833 594.293 420.94 594.34H420.95C421.057 594.38 421.133 594.347 421.18 594.24C423.02 589.733 424.817 585.203 426.57 580.65" stroke="#A98467" stroke-width="2"/>
<path d="M463.1 595.72C458.067 597.213 452.763 598.627 447.19 599.96C444.343 600.633 442.267 601.547 440.96 602.7C438.253 605.067 437.703 607.77 439.31 610.81" stroke="#E0BC96" stroke-width="2"/>
<path d="M439.31 610.81C440.663 616.783 441.757 623.087 442.59 629.72C443.03 633.2 443.43 638.25 448.31 638.18C452.617 638.127 455.79 638.15 457.83 638.25" stroke="#83705B" stroke-width="2"/>
<path d="M457.83 638.25C447.117 641.09 436.427 642.823 425.76 643.45" stroke="#B99977" stroke-width="2"/>
<path d="M498 753.92C496.527 755.413 494.817 757.067 492.87 758.88C488.483 762.967 484.567 767.32 481.12 771.94" stroke="#B99977" stroke-width="2"/>
<path d="M481.12 771.94L441.45 771.93" stroke="#7B634E" stroke-width="2"/>
<path d="M565.03 404.03C565.33 405.47 565.633 406.883 565.94 408.27C567.75 416.42 563.95 426.13 554.85 427.36C544.68 428.73 537.73 419.57 536.14 410.27C536.08 409.943 535.887 409.8 535.56 409.84L526.17 410.92C526.077 410.931 525.987 410.962 525.907 411.011C525.827 411.06 525.759 411.126 525.706 411.203C525.654 411.281 525.619 411.37 525.604 411.462C525.589 411.555 525.595 411.65 525.62 411.74C526.253 414.027 526.13 415.79 525.25 417.03C524.49 418.103 524.137 417.983 524.19 416.67C524.43 410.83 522.25 400.29 515.65 398.38" stroke="#83705B" stroke-width="2"/>
<path d="M515.65 398.38C514.69 397.72 513.38 397.667 511.72 398.22C508.533 399.28 506.133 401.7 504.52 405.48C501.34 412.92 503.79 424.02 510.57 429.16C512.56 430.67 515.74 431.79 517.53 429.43" stroke="#8C897D" stroke-width="2"/>
<path d="M517.53 429.43C518.03 428.997 518.3 429.04 518.34 429.56C518.347 429.624 518.329 429.691 518.29 429.75L516.08 433.32" stroke="#83705B" stroke-width="2"/>
<path d="M229.26 398.2C197.087 423.233 164.83 448.163 132.49 472.99C131.55 473.717 130.407 474.293 129.06 474.72" stroke="#C3B2A6" stroke-width="2"/>
<path d="M129.06 474.72L120.03 469.52" stroke="#7A5A47" stroke-width="2"/>
<path d="M632.02 426.58L629.2 426.03C629.128 426.017 629.054 426.021 628.985 426.043C628.915 426.066 628.853 426.105 628.802 426.157C628.751 426.21 628.715 426.274 628.695 426.345C628.676 426.415 628.674 426.489 628.69 426.56C631.51 438.79 634.2 451.13 634.9 463.71C635.51 474.68 631.12 480.03 621.82 484.91C603.747 494.383 587.443 501.97 572.91 507.67C572.811 507.709 572.72 507.768 572.644 507.844C572.567 507.919 572.507 508.008 572.466 508.107C572.425 508.206 572.404 508.312 572.405 508.419C572.406 508.526 572.428 508.632 572.47 508.73L580.69 527.47" stroke="#6B4D3D" stroke-width="2"/>
<path d="M580.69 527.47C579.537 528.077 578.347 528.727 577.12 529.42C571.427 532.633 566.883 536.73 563.49 541.71C555.46 553.5 556.24 567.9 559.69 581.3C560.09 582.853 560.3 584.44 560.32 586.06" stroke="#554F43" stroke-width="2"/>
<path d="M560.32 586.06C561.587 591.56 562.467 597.123 562.96 602.75C563.067 603.963 562.96 605.157 562.64 606.33C562.553 606.657 562.363 606.91 562.07 607.09C560.997 607.73 559.557 607.77 557.75 607.21" stroke="#8C897D" stroke-width="2"/>
<path d="M557.75 607.21C556.017 605.517 554.827 604.217 554.18 603.31C546.86 592.95 542.16 580.57 538.53 568.5C535.25 557.607 534.523 547.26 536.35 537.46" stroke="#554F43" stroke-width="2"/>
<path d="M529.97 448.98C530.823 450.433 532.327 450.977 534.48 450.61C536.7 450.24 540.09 449.74 540.57 447.1C540.623 446.8 540.67 446.803 540.71 447.11C540.723 447.243 540.757 447.37 540.81 447.49C540.857 447.584 540.937 447.658 541.034 447.698C541.131 447.739 541.24 447.743 541.34 447.71C547.28 445.75 552.32 444.36 556.65 450.39C560.22 455.37 567.32 466.68 574.93 464.18C576.77 463.58 578.637 462.877 580.53 462.07C588.59 458.637 595.99 454.333 602.73 449.16" stroke="#83705B" stroke-width="2"/>
<path d="M602.73 449.16C609.67 444.087 614.11 437.707 616.05 430.02C616.717 427.36 616.87 423.987 616.51 419.9C615.663 410.307 614.55 400.737 613.17 391.19" stroke="#7C7262" stroke-width="2"/>
<path d="M613.17 391.19C613.177 391.097 613.18 391 613.18 390.9" stroke="#83705B" stroke-width="2"/>
<path d="M345.03 580.94C296.383 581.853 247.997 582.737 199.87 583.59C191.82 583.73 187.91 590.96 190.17 598.32C209.643 661.7 229.517 724.667 249.79 787.22C251.243 791.713 254.47 795.2 259.47 797.68" stroke="#C3B2A6" stroke-width="2"/>
<path d="M259.47 797.68L211.25 797.74" stroke="#8E9292" stroke-width="2"/>
<path d="M211.25 797.74C207.563 783.873 204.263 772.35 201.35 763.17C199.203 756.39 195.087 751.853 189 749.56C186.453 748.6 182.56 748.13 177.32 748.15C172.14 748.177 166.843 748.223 161.43 748.29" stroke="#AB9C95" stroke-width="2"/>
<path d="M161.43 748.29C161.277 745.157 160.923 742.02 160.37 738.88C159.557 734.22 157.273 730.243 153.52 726.95" stroke="#B4A69E" stroke-width="2"/>
<path d="M153.52 726.95L126.55 497.5" stroke="#C3B2A6" stroke-width="2"/>
<path d="M126.55 497.5C129.977 493.487 131.617 489.06 131.47 484.22C131.437 482.993 131.1 481.403 130.46 479.45C129.953 477.903 129.487 476.327 129.06 474.72" stroke="#B4A69E" stroke-width="2"/>
<path d="M689.69 388.93C689.13 394.403 688.423 398.017 687.57 399.77C685.697 403.623 684.067 407.507 682.68 411.42C682.659 411.485 682.619 411.542 682.566 411.585C682.512 411.628 682.448 411.654 682.38 411.661C682.312 411.667 682.243 411.653 682.183 411.621C682.122 411.589 682.073 411.54 682.04 411.48L677.36 403.52C677.307 403.426 677.227 403.348 677.132 403.297C677.036 403.246 676.928 403.224 676.82 403.232C676.711 403.24 676.608 403.279 676.521 403.345C676.434 403.41 676.368 403.498 676.33 403.6C674.2 409.1 672.1 413.99 667.79 418.19C661.623 424.197 654.9 429.42 647.62 433.86C647.073 434.193 646.323 434.96 645.37 436.16" stroke="#8C897D" stroke-width="2"/>
<path d="M645.37 436.16L644.96 436.38C644.711 436.518 644.431 436.59 644.146 436.59C643.862 436.589 643.582 436.517 643.333 436.379C643.084 436.241 642.875 436.042 642.724 435.801C642.573 435.56 642.485 435.284 642.47 435L642.06 427.27" stroke="#6B4D3D" stroke-width="2"/>
<path d="M642.06 427.27L642.32 426.74C642.36 426.667 642.42 426.64 642.5 426.66C642.58 426.687 642.67 426.713 642.77 426.74" stroke="#83705B" stroke-width="2"/>
<path d="M642.77 426.74C642.99 427.813 643.59 428.53 644.57 428.89C648.13 430.2 650.96 428.72 650.97 424.82C650.97 423.587 650.93 422.36 650.85 421.14" stroke="#8E9292" stroke-width="2"/>
<path d="M650.85 421.14C656.277 417.42 660.447 412.747 663.36 407.12C667.71 398.74 668.11 388.13 661.17 381.04C655.1 374.83 646.63 376.15 639.72 380.6" stroke="#83705B" stroke-width="2"/>
<path d="M639.72 380.6C630.32 382.787 621.107 385.493 612.08 388.72" stroke="#6B4D3D" stroke-width="2"/>
<path d="M612.08 388.72C608.54 384.173 605.53 379.68 603.05 375.24C599.05 368.08 598.73 359.39 600.52 351.57C601.54 347.13 603.79 342.85 605.55 338.59C608.523 331.357 610.267 324.523 610.78 318.09C610.973 315.603 610.623 315.527 609.73 317.86C605.9 327.82 601.26 336.81 591.23 341.44C585.357 344.147 578.31 346.07 570.09 347.21C568.11 347.49 566.497 347.013 565.25 345.78C564.95 345.48 564.6 345.397 564.2 345.53C560.69 346.68 522.75 357.66 525.17 346.95C525.18 346.902 525.178 346.853 525.162 346.807C525.147 346.761 525.119 346.719 525.082 346.688C525.046 346.656 525.001 346.635 524.953 346.626C524.905 346.618 524.855 346.623 524.81 346.64C519.523 348.58 514.063 349.863 508.43 350.49" stroke="#83705B" stroke-width="2"/>
<path d="M636.72 384.42C628.76 386.233 621.047 388.233 613.58 390.42C613.46 390.453 613.373 390.51 613.32 390.59C613.26 390.677 613.213 390.78 613.18 390.9" stroke="#6B4D3D" stroke-width="2"/>
<path d="M613.18 390.9C611.8 391.08 610.34 391.19 609 391.58C599.607 394.307 590.207 397.017 580.8 399.71C576.56 400.92 570.24 402.28 565.03 404.03" stroke="#CF9771" stroke-width="2"/>
<path d="M565.03 404.03C565.003 403.817 564.867 403.533 564.62 403.18" stroke="#6B4D3D" stroke-width="2"/>
<path d="M623.45 776.77C619.9 776.32 614.88 776.38 613.65 778.66C612.83 780.187 611.907 781.487 610.88 782.56" stroke="#F0D3B1" stroke-width="2"/>
<path d="M610.88 782.56C603.573 785.033 595.523 786.053 586.73 785.62C573.57 784.98 561.92 778.89 552.57 769.83" stroke="#A98467" stroke-width="2"/>
<path d="M552.57 769.83C551.597 768.377 550.613 767.807 549.62 768.12C547.047 768.947 543.58 770.577 539.22 773.01" stroke="#B8906F" stroke-width="2"/>
<path d="M539.22 773.01C528.707 778.663 517.817 783.213 506.55 786.66" stroke="#A98467" stroke-width="2"/>
<path d="M486.68 786.67C482.07 783.06 477.53 778.01 481.12 771.94" stroke="#A98467" stroke-width="2"/>
<path d="M608.68 743.83C591.893 737.157 574.527 733 556.58 731.36" stroke="#F0D3B1" stroke-width="2"/>
<path d="M556.58 731.36C555.58 706.14 555.29 678.817 555.71 649.39C555.93 633.83 556.61 619.77 557.75 607.21" stroke="#AAC955" stroke-width="2"/>
<path d="M610.88 782.56C609.287 783.92 608.077 785.363 607.25 786.89" stroke="#B29D89" stroke-width="2"/>
<path d="M646.71 797.76L619.63 797.77" stroke="#8C897D" stroke-width="2"/>
<path d="M126.55 497.5C123.397 499.393 120.29 500.757 117.23 501.59" stroke="#7A5A47" stroke-width="2"/>
<path d="M581.65 530.28C576.443 533.293 572.713 537.68 570.46 543.44C567.773 550.313 565.84 556.433 564.66 561.8C562.91 569.77 560.81 577.9 560.32 586.06" stroke="#AAC955" stroke-width="2"/>
<path d="M651.27 457.82C652.637 461.313 653.963 463.953 655.25 465.74C661.977 475.06 669.91 483.697 679.05 491.65C679.128 491.717 679.19 491.8 679.232 491.893C679.275 491.987 679.297 492.088 679.297 492.192C679.297 492.295 679.275 492.397 679.232 492.492C679.19 492.586 679.128 492.671 679.05 492.74C663.91 506.08 650.4 522.44 638.86 538.62C636.667 541.693 634.527 544.663 632.44 547.53" stroke="#6B4D3D" stroke-width="2"/>
<path d="M632.44 547.53C630.227 548.057 628.147 548.607 626.2 549.18C618.547 551.427 610.97 553.08 603.47 554.14C596.4 555.14 588.25 555.61 581.62 552.67C575.17 549.81 573.88 541.35 578.28 536.27C580.207 534.05 581.33 532.053 581.65 530.28" stroke="#D7B093" stroke-width="2"/>
<path d="M581.65 530.28C581.07 529.38 580.75 528.443 580.69 527.47" stroke="#A07659" stroke-width="2"/>
<path d="M650.85 421.14C649.45 420.44 647.797 420.207 645.89 420.44C644.617 420.593 643.743 421.127 643.27 422.04C642.63 423.273 642.463 424.84 642.77 426.74" stroke="#F2DCC6" stroke-width="2"/>
<path d="M642.06 427.27C638.433 427.49 635.087 427.26 632.02 426.58" stroke="#CF9771" stroke-width="2"/>
<path d="M632.02 426.58C631.62 416.63 630.76 406.89 630.12 397.14C629.83 392.76 634.17 387.97 636.72 384.42" stroke="#83705B" stroke-width="2"/>
<path d="M636.72 384.42C637.707 383.747 638.707 382.473 639.72 380.6" stroke="#CF9771" stroke-width="2"/>
<path d="M153.52 726.95L143.78 724.37" stroke="#7A5A47" stroke-width="2"/>
<path d="M161.43 748.29C159.11 748.683 156.95 748.883 154.95 748.89C146.763 748.91 137.153 748.73 126.12 748.35" stroke="#624536" stroke-width="2"/>
<path d="M211.25 797.74L77.96 797.85" stroke="#AAC955" stroke-width="2"/>
<path d="M731.41 431.34C737.837 432.627 744.833 432.957 752.4 432.33" stroke="#AAC955" stroke-width="2"/>
<path d="M888.61 595C885.85 594.76 883.48 594.46 880.79 594.72C867.85 595.98 854.917 597.307 841.99 598.7C839.123 599.013 836.05 599.233 832.77 599.36" stroke="#D5C3A7" stroke-width="2"/>
<path d="M832.77 599.36C832.07 593.82 831.22 588.317 830.22 582.85C829.28 577.697 828.05 572.383 826.53 566.91C820.62 545.61 803.22 531.94 781.88 526.89C777.153 525.77 768.24 523.433 755.14 519.88" stroke="#AAC955" stroke-width="2"/>
<path d="M755.14 519.88C757.613 519.253 759.24 518.633 760.02 518.02C764.37 514.57 763.68 504.07 762.71 498.79C756.79 466.48 722.46 451.04 692.99 451.67C679.243 451.97 665.337 454.02 651.27 457.82" stroke="#8C897D" stroke-width="2"/>
<path d="M651.27 457.82L645.37 436.16" stroke="#D7B093" stroke-width="2"/>
<path d="M794.23 797.88L742.28 797.82" stroke="#453A33" stroke-width="2"/>
<path d="M832.77 599.36C837.65 634.433 841.73 669.63 845.01 704.95C846.27 718.46 847.02 732.09 844.26 744.95C840.493 762.437 830.617 775.07 814.63 782.85C810.263 784.97 803.56 787.42 794.52 790.2" stroke="#9E8A6C" stroke-width="2"/>
<path d="M794.52 790.2C781.853 792.667 769.04 794.587 756.08 795.96C755.007 796.073 753.873 796.323 752.68 796.71C751.013 797.25 749.87 797.5 749.25 797.46C746.883 797.307 744.56 797.427 742.28 797.82" stroke="#7B634E" stroke-width="2"/>
<path d="M742.28 797.82L646.71 797.76" stroke="#554F43" stroke-width="2"/>
<path d="M646.71 797.76C647.13 797.387 647.677 797.257 648.35 797.37C648.43 797.39 648.487 797.36 648.52 797.28L648.65 796.98C648.73 796.773 648.66 796.663 648.44 796.65C644.74 796.437 641.35 795.853 638.27 794.9C630 792.34 626.36 784.22 623.45 776.77" stroke="#AAC955" stroke-width="2"/>
<path d="M623.45 776.77C621.017 769.01 618.273 761.413 615.22 753.98C613.5 749.78 611.32 746.397 608.68 743.83" stroke="#B99977" stroke-width="2"/>
<path d="M608.68 743.83C609.693 742.103 611.123 740.813 612.97 739.96C625.91 734.01 639.89 730.54 653.66 727.96C654.036 727.889 654.375 727.692 654.623 727.401C654.87 727.109 655.011 726.742 655.02 726.36C655.88 695.453 656.643 664.75 657.31 634.25C657.69 616.63 658.683 599.047 660.29 581.5C660.717 576.793 661.423 571.99 662.41 567.09" stroke="#AAC955" stroke-width="2"/>
<path d="M896.67 597.78C898.403 599.393 899.75 601.197 900.71 603.19C902.36 606.61 901.88 611.05 901.81 614.98C901.4 637.01 901.33 659.6 900.81 682C900.197 708.6 899.61 736.017 899.05 764.25C898.85 774.42 894.46 783.52 885.21 788.55C885.05 788.637 884.93 788.763 884.85 788.93C884.697 789.23 884.457 789.41 884.13 789.47L876 791.03" stroke="#C5AD8B" stroke-width="2"/>
<path d="M876 791.03C872.83 791.13 869.25 791.89 866.62 792.15C850.853 793.717 835.063 794.99 819.25 795.97C815.717 796.19 812.27 796.783 808.91 797.75" stroke="#D7CCBC" stroke-width="2"/>
<path d="M808.91 797.75L794.23 797.88" stroke="#686151" stroke-width="2"/>
<path d="M794.23 797.88L794.52 790.2" stroke="#8E755C" stroke-width="2"/>
<path d="M911.39 797.76L899.53 797.77" stroke="#7C7262" stroke-width="2"/>
<path d="M899.53 797.77L899.4 785.34C899.397 785.223 899.363 785.108 899.301 785.009C899.238 784.909 899.15 784.829 899.045 784.775C898.941 784.722 898.824 784.698 898.706 784.706C898.589 784.714 898.477 784.753 898.38 784.82C893.92 787.893 888.94 789.783 883.44 790.49C881.02 790.803 878.54 790.983 876 791.03" stroke="#EBDECD" stroke-width="2"/>
<path d="M899.53 797.77L808.91 797.75" stroke="#8E9292" stroke-width="2"/>
<path d="M552.57 769.83L539.22 773.01" stroke="#7A5A47" stroke-width="2"/>
<path d="M755.14 519.88C738.87 524.1 721.79 532.07 707.39 539.91C691.95 548.317 676.957 557.377 662.41 567.09" stroke="#554F43" stroke-width="2"/>
<path d="M662.41 567.09C649.237 576.23 636.03 585.217 622.79 594.05C618.737 596.757 614.843 598.99 611.11 600.75C609.57 601.477 608.167 601.127 606.9 599.7C606.669 599.437 606.547 599.093 606.56 598.74C606.627 596.96 606.943 595.373 607.51 593.98C614.1 577.65 622.7 562.19 632.44 547.53" stroke="#8C897D" stroke-width="2"/>
<path d="M855.13 431.84C855.663 429.147 855.037 427.79 853.25 427.77C839.563 427.61 825.9 427.66 812.26 427.92C811.513 427.94 811.08 427.79 810.96 427.47" stroke="#987D65" stroke-width="2"/>
<path d="M810.96 427.47L815.7 410.82" stroke="#7C7262" stroke-width="2"/>
<path d="M815.7 410.82C829.187 410.627 842.667 410.607 856.14 410.76C859.76 410.8 863.2 410.33 863.2 406.2C863.14 355.527 863.093 307.067 863.06 260.82C863.06 259.652 862.597 258.532 861.772 257.705C860.947 256.878 859.828 256.413 858.66 256.41C815.887 256.297 771.417 256.283 725.25 256.37C722.677 256.377 720.943 256.68 720.05 257.28C718.443 258.36 717.643 259.517 717.65 260.75C717.94 309.41 717.78 357.99 717.76 406.33C717.76 407.516 718.23 408.652 719.066 409.491C719.903 410.329 721.037 410.8 722.22 410.8C736.08 410.78 749.86 410.763 763.56 410.75C763.6 410.75 765.223 410.837 768.43 411.01C770.637 411.123 772.453 410.863 773.88 410.23" stroke="#E8D5B8" stroke-width="2"/>
<path d="M773.88 410.23L778.63 427.3" stroke="#7C7262" stroke-width="2"/>
<path d="M778.63 427.3C778.67 427.66 778.307 427.843 777.54 427.85C763.033 427.877 748.517 427.903 733.99 427.93C732.183 427.937 731.323 429.073 731.41 431.34" stroke="#987D65" stroke-width="2"/>
<path d="M731.41 431.34C722.29 431.067 713.067 430.97 703.74 431.05C699.36 431.08 696.49 430.13 696.58 425.26C696.767 415.613 696.763 403.59 696.57 389.19" stroke="#E8D5B8" stroke-width="2"/>
<path d="M810.96 427.47C809.773 427.71 808.61 427.843 807.47 427.87C798.75 428.077 790.03 428.073 781.31 427.86C780.343 427.833 779.45 427.647 778.63 427.3" stroke="#AAC955" stroke-width="2"/>
<path d="M815.7 410.82L823.85 381.23C823.922 380.967 823.932 380.691 823.881 380.423C823.829 380.155 823.717 379.902 823.553 379.684C823.389 379.466 823.178 379.288 822.934 379.164C822.691 379.041 822.423 378.974 822.15 378.97L810.34 378.76" stroke="#8C897D" stroke-width="2"/>
<path d="M810.34 378.76C811.47 375.27 811.95 369.74 815.25 367.82C819.897 365.113 824.457 362.293 828.93 359.36C838.083 353.353 846.557 345.583 854.35 336.05C856.3 333.68 860.16 326.83 853.79 326.9C851.877 326.92 849.757 327.367 847.43 328.24C838.19 331.707 829.857 336.077 822.43 341.35C809.95 350.21 806.98 364.56 804.9 378.75" stroke="#AAC955" stroke-width="2"/>
<path d="M804.9 378.75C803.473 379.243 802.643 379.163 802.41 378.51" stroke="#8C897D" stroke-width="2"/>
<path d="M802.41 378.51C803.097 373.663 803.56 368.817 803.8 363.97C803.92 361.48 804.64 359.25 805.95 357.22C809.637 351.507 813.49 345.99 817.51 340.67C829.537 324.737 835.42 306.813 835.16 286.9C835.147 285.627 835.16 284.337 835.2 283.03C835.32 278.55 833.92 271.12 827.41 276.12C826.143 277.093 825.01 278.1 824.01 279.14C815.67 287.82 808.63 297.643 802.89 308.61C799.37 315.343 797.423 321.963 797.05 328.47C796.643 335.61 797.293 344.167 799 354.14C799.433 356.687 799.49 358.933 799.17 360.88C798.197 366.773 797.52 372.73 797.14 378.75" stroke="#AAC955" stroke-width="2"/>
<path d="M797.14 378.75C793.927 379.577 792.693 379.17 793.44 377.53" stroke="#8C897D" stroke-width="2"/>
<path d="M793.44 377.53C793.36 375.83 792.95 373.49 792.21 370.51C791.483 367.603 791.373 364.45 791.88 361.05C792.64 355.977 793.307 350.94 793.88 345.94C794.613 339.6 793.753 332.983 791.3 326.09C787.913 316.543 783.573 308.033 778.28 300.56C777.5 299.46 776.567 298.517 775.48 297.73C773.1 296.02 770.25 297.23 769.22 299.75C768.107 302.45 767.337 305.837 766.91 309.91C765.63 322.16 766.09 338.13 772.94 349C773.547 349.967 773.397 350.107 772.49 349.42C763.07 342.273 752.703 337.647 741.39 335.54C739.763 335.24 738.363 335.643 737.19 336.75C734.12 339.63 739.98 347.45 741.89 349.83C750.78 360.87 761.39 366.69 774.8 369.93C775.209 370.029 775.59 370.224 775.911 370.498C776.233 370.773 776.486 371.119 776.65 371.51L779.42 378.13" stroke="#AAC955" stroke-width="2"/>
<path d="M779.42 378.13C779.553 378.303 779.623 378.457 779.63 378.59C779.643 378.843 779.523 378.97 779.27 378.97L767.53 378.96C766.137 378.96 765.5 379.653 765.62 381.04C765.68 381.753 765.84 382.55 766.1 383.43C768.607 391.99 771.2 400.923 773.88 410.23" stroke="#8C897D" stroke-width="2"/>
<path d="M793.44 377.53C791.64 377.703 789.877 378.177 788.15 378.95" stroke="#AAC955" stroke-width="2"/>
<path d="M788.15 378.95C787.95 375.22 787.4 366.33 784.5 363.76C783.433 362.82 782.367 361.907 781.3 361.02C780.86 360.653 780.707 360.75 780.84 361.31L785.14 378.8" stroke="#AAC955" stroke-width="2"/>
<path d="M785.14 378.8L779.42 378.13" stroke="#AAC955" stroke-width="2"/>
<path d="M802.41 378.51L797.14 378.75" stroke="#AAC955" stroke-width="2"/>
<path d="M788.15 378.95C786.91 379.077 785.907 379.027 785.14 378.8" stroke="#8C897D" stroke-width="2"/>
<path d="M810.34 378.76C808.673 378.273 806.86 378.27 804.9 378.75" stroke="#AAC955" stroke-width="2"/>
<path d="M316 359.72C326.313 350.347 338.787 342.91 353.42 337.41C355.36 336.677 355.297 336.243 353.23 336.11C349.23 335.85 344.983 336.6 340.49 338.36C324.64 344.56 311.34 357.67 303.05 372.02C302.999 372.104 302.981 372.203 302.997 372.302C303.014 372.4 303.064 372.492 303.14 372.56L303.43 372.81C303.523 372.89 303.607 372.883 303.68 372.79C308.167 367.463 312.273 363.107 316 359.72Z" stroke="#624536" stroke-width="2"/>
<path d="M640.72 396.82C640.651 396.811 640.584 396.786 640.526 396.746C640.469 396.707 640.421 396.654 640.388 396.592C640.355 396.531 640.337 396.462 640.335 396.392C640.334 396.322 640.349 396.253 640.38 396.19C642.86 390.97 646.06 386.55 652.22 386.06C656.71 385.71 658.47 388.33 660.19 391.76C660.297 391.973 660.453 392.023 660.66 391.91L660.9 391.77C660.98 391.723 661.007 391.657 660.98 391.57C659.687 387.65 657.093 385.54 653.2 385.24C644.88 384.59 640.92 392.63 637.45 398.56C636.92 399.47 636.66 400.93 636.85 401.83C637.943 407.143 638.7 412.46 639.12 417.78C639.147 418.173 639.357 418.36 639.75 418.34C644.04 418.15 646.81 415.57 648.98 412.1C651.08 408.75 651.29 405.31 649.45 401.82C647.7 398.5 644.12 397.31 640.72 396.82Z" stroke="#CF9771" stroke-width="2"/>
<path d="M546.09 468.79C546.359 468.802 546.621 468.879 546.854 469.014C547.086 469.15 547.283 469.34 547.425 469.569C547.568 469.797 547.653 470.057 547.673 470.325C547.693 470.594 547.647 470.863 547.54 471.11C547.12 472.07 546.39 472.777 545.35 473.23C540.83 475.17 536.467 476.757 532.26 477.99C531.48 478.217 531.207 478.723 531.44 479.51C532.28 482.303 533.45 484.83 534.95 487.09C540.13 494.88 551.43 496.1 559.19 491.5C564.02 488.64 566.76 483.48 563.17 478.2C560.957 474.96 558.82 471.7 556.76 468.42C555.01 465.64 551.35 461.33 547.98 460.98C541.8 460.34 535.793 461.297 529.96 463.85C528.953 464.297 528.48 465.07 528.54 466.17L528.91 472.55C528.97 473.63 529.51 473.983 530.53 473.61C534.07 472.31 537.787 470.95 541.68 469.53C543.193 468.977 544.663 468.73 546.09 468.79Z" stroke="#83705B" stroke-width="2"/>
<path d="M479.96 503.49C480.07 500.72 481.33 498.13 482.82 495.83C483.553 494.697 483.377 494.53 482.29 495.33C479.71 497.237 478.317 500.107 478.11 503.94C477.823 509.287 477.823 514.677 478.11 520.11C478.143 520.623 478.41 520.827 478.91 520.72C478.983 520.707 479.07 520.69 479.17 520.67C479.436 520.614 479.673 520.464 479.839 520.248C480.006 520.032 480.091 519.764 480.08 519.49C479.807 513.537 479.767 508.203 479.96 503.49Z" stroke="#8C897D" stroke-width="2"/>
<path d="M556.324 425.183C559.537 424.12 562.077 421.466 563.386 417.803C564.696 414.141 564.666 409.77 563.305 405.653C562.63 403.615 561.65 401.7 560.418 400.018C559.186 398.336 557.728 396.92 556.126 395.85C554.525 394.781 552.811 394.079 551.083 393.785C549.355 393.491 547.647 393.611 546.056 394.137C542.843 395.199 540.303 397.854 538.993 401.517C537.684 405.179 537.714 409.55 539.075 413.666C539.749 415.705 540.73 417.62 541.962 419.302C543.194 420.984 544.652 422.4 546.254 423.47C547.855 424.539 549.569 425.241 551.297 425.535C553.025 425.829 554.733 425.709 556.324 425.183Z" stroke="#83705B" stroke-width="2"/>
<path d="M712.07 720.11C694.9 720.98 678.95 722.64 661.16 726.35C661.073 726.37 661.037 726.423 661.05 726.51L661.11 726.94C661.118 727.008 661.151 727.071 661.203 727.115C661.255 727.16 661.322 727.183 661.39 727.18C684.823 725.813 700.257 725.117 707.69 725.09C736.803 724.983 762.667 724.873 785.28 724.76C786.073 724.76 786.89 724.427 787.73 723.76C788.003 723.547 788.01 723.197 787.75 722.71C787.689 722.594 787.599 722.494 787.489 722.421C787.379 722.348 787.252 722.303 787.12 722.29C770.42 720.597 755.377 719.693 741.99 719.58C733.75 719.507 725.653 719.617 717.7 719.91C717.26 719.923 717.02 719.71 716.98 719.27C715.053 696.523 713.9 674.02 713.52 651.76C712.83 611.75 730.74 572.83 766.05 552.96C777.52 546.5 789.36 543.67 802.53 542.61C802.746 542.591 802.952 542.508 803.121 542.372C803.29 542.235 803.415 542.053 803.479 541.846C803.544 541.64 803.545 541.42 803.483 541.214C803.42 541.008 803.298 540.825 803.13 540.69C802.543 540.203 801.873 539.887 801.12 539.74C795.32 538.593 789.32 538.96 783.12 540.84C768.84 545.18 757.54 551.92 746.84 562.16C725.62 582.46 712.63 609.63 710.28 639.23C709.787 645.443 709.567 651.243 709.62 656.63C709.807 676.577 710.837 697.493 712.71 719.38C712.75 719.847 712.537 720.09 712.07 720.11Z" stroke="#554F43" stroke-width="2"/>
<path d="M323.02 683.98C323.02 680.988 321.832 678.119 319.716 676.004C317.601 673.888 314.732 672.7 311.74 672.7C308.748 672.7 305.879 673.888 303.764 676.004C301.648 678.119 300.46 680.988 300.46 683.98C300.46 686.972 301.648 689.841 303.764 691.956C305.879 694.072 308.748 695.26 311.74 695.26C314.732 695.26 317.601 694.072 319.716 691.956C321.832 689.841 323.02 686.972 323.02 683.98Z" stroke="#71513E" stroke-width="2"/>
<path d="M539.04 739.47L539.05 739.1C539.057 738.907 538.963 738.827 538.77 738.86C531.423 740.053 524.5 742.76 518 746.98C510.92 751.567 503.277 757.483 495.07 764.73C492.37 767.117 489.803 769.78 487.37 772.72C487.323 772.773 487.333 772.813 487.4 772.84L487.73 772.95C487.837 772.99 487.93 772.97 488.01 772.89C497.72 763.06 507.59 754.67 520.04 746.7C526.16 742.78 532.46 740.403 538.94 739.57C539 739.563 539.033 739.53 539.04 739.47Z" stroke="#B8906F" stroke-width="2"/>
<path d="M492.29 783.65C505.76 768.65 521.92 755.24 542.87 753.53C543.063 753.517 543.153 753.41 543.14 753.21L543.12 752.95C543.12 752.89 543.09 752.863 543.03 752.87C535.043 753.35 527.763 755.4 521.19 759.02C510.223 765.053 500.4 773.197 491.72 783.45C491.687 783.483 491.69 783.513 491.73 783.54L491.97 783.69C492.021 783.723 492.081 783.737 492.14 783.73C492.199 783.722 492.252 783.694 492.29 783.65Z" stroke="#B8906F" stroke-width="2"/>
<path d="M855.13 431.84C855.663 429.147 855.037 427.79 853.25 427.77C839.563 427.61 825.9 427.66 812.26 427.92C811.513 427.94 811.08 427.79 810.96 427.47L815.7 410.82C829.187 410.627 842.667 410.607 856.14 410.76C859.76 410.8 863.2 410.33 863.2 406.2C863.14 355.527 863.093 307.067 863.06 260.82C863.06 259.652 862.597 258.532 861.772 257.705C860.947 256.878 859.828 256.413 858.66 256.41C815.887 256.297 771.417 256.283 725.25 256.37C722.677 256.377 720.943 256.68 720.05 257.28C718.443 258.36 717.643 259.517 717.65 260.75C717.94 309.41 717.78 357.99 717.76 406.33C717.76 407.516 718.23 408.652 719.066 409.491C719.903 410.329 721.037 410.8 722.22 410.8C736.08 410.78 749.86 410.763 763.56 410.75C763.6 410.75 765.223 410.837 768.43 411.01C770.637 411.123 772.453 410.863 773.88 410.23L778.63 427.3C778.67 427.66 778.307 427.843 777.54 427.85C763.033 427.877 748.517 427.903 733.99 427.93C732.183 427.937 731.323 429.073 731.41 431.34C722.29 431.067 713.067 430.97 703.74 431.05C699.36 431.08 696.49 430.13 696.58 425.26C696.767 415.613 696.763 403.59 696.57 389.19C696.657 382.983 696.7 376.753 696.7 370.5C696.72 329.087 696.607 287.42 696.36 245.5C696.34 242.333 697.75 240.537 700.59 240.11C701.49 239.97 703.377 239.907 706.25 239.92C741.83 240.073 777.41 240.077 812.99 239.93C834.08 239.84 855.65 240.25 876 239.86C879.68 239.79 883.95 239.85 883.94 244.87C883.82 306.17 883.813 366.43 883.92 425.65C883.927 429.303 882.12 431.083 878.5 430.99C870.7 430.79 862.91 431.073 855.13 431.84Z" fill="#D8BE9C"/>
<path d="M815.7 410.82L823.85 381.23C823.922 380.967 823.932 380.69 823.881 380.423C823.829 380.155 823.717 379.902 823.553 379.684C823.389 379.466 823.178 379.288 822.934 379.164C822.691 379.041 822.423 378.974 822.15 378.97L810.34 378.76C811.47 375.27 811.95 369.74 815.25 367.82C819.897 365.113 824.457 362.293 828.93 359.36C838.083 353.353 846.557 345.583 854.35 336.05C856.3 333.68 860.16 326.83 853.79 326.9C851.877 326.92 849.757 327.367 847.43 328.24C838.19 331.707 829.857 336.077 822.43 341.35C809.95 350.21 806.98 364.56 804.9 378.75C803.473 379.243 802.643 379.163 802.41 378.51C803.097 373.663 803.56 368.817 803.8 363.97C803.92 361.48 804.64 359.25 805.95 357.22C809.637 351.507 813.49 345.99 817.51 340.67C829.537 324.737 835.42 306.813 835.16 286.9C835.147 285.627 835.16 284.337 835.2 283.03C835.32 278.55 833.92 271.12 827.41 276.12C826.143 277.093 825.01 278.1 824.01 279.14C815.67 287.82 808.63 297.643 802.89 308.61C799.37 315.343 797.423 321.963 797.05 328.47C796.643 335.61 797.293 344.167 799 354.14C799.433 356.687 799.49 358.933 799.17 360.88C798.197 366.773 797.52 372.73 797.14 378.75C793.927 379.577 792.693 379.17 793.44 377.53C793.36 375.83 792.95 373.49 792.21 370.51C791.483 367.603 791.373 364.45 791.88 361.05C792.64 355.977 793.307 350.94 793.88 345.94C794.613 339.6 793.753 332.983 791.3 326.09C787.913 316.543 783.573 308.033 778.28 300.56C777.5 299.46 776.567 298.517 775.48 297.73C773.1 296.02 770.25 297.23 769.22 299.75C768.107 302.45 767.337 305.837 766.91 309.91C765.63 322.16 766.09 338.13 772.94 349C773.547 349.967 773.397 350.107 772.49 349.42C763.07 342.273 752.703 337.647 741.39 335.54C739.763 335.24 738.363 335.643 737.19 336.75C734.12 339.63 739.98 347.45 741.89 349.83C750.78 360.87 761.39 366.69 774.8 369.93C775.209 370.029 775.59 370.224 775.911 370.498C776.233 370.773 776.486 371.119 776.65 371.51L779.42 378.13C779.553 378.303 779.623 378.457 779.63 378.59C779.643 378.843 779.523 378.97 779.27 378.97L767.53 378.96C766.137 378.96 765.5 379.653 765.62 381.04C765.68 381.753 765.84 382.55 766.1 383.43C768.607 391.99 771.2 400.923 773.88 410.23C772.453 410.863 770.637 411.123 768.43 411.01C765.223 410.837 763.6 410.75 763.56 410.75C749.86 410.763 736.08 410.78 722.22 410.8C721.037 410.8 719.903 410.329 719.066 409.491C718.23 408.652 717.76 407.516 717.76 406.33C717.78 357.99 717.94 309.41 717.65 260.75C717.643 259.517 718.443 258.36 720.05 257.28C720.943 256.68 722.677 256.377 725.25 256.37C771.417 256.283 815.887 256.297 858.66 256.41C859.828 256.413 860.947 256.878 861.772 257.705C862.597 258.532 863.06 259.652 863.06 260.82C863.093 307.067 863.14 355.527 863.2 406.2C863.2 410.33 859.76 410.8 856.14 410.76C842.667 410.607 829.187 410.627 815.7 410.82ZM727.33 265.43C727.33 265.031 727.251 264.635 727.099 264.267C726.946 263.898 726.722 263.563 726.44 263.28C726.157 262.998 725.822 262.774 725.453 262.621C725.085 262.469 724.689 262.39 724.29 262.39C723.891 262.39 723.495 262.469 723.127 262.621C722.758 262.774 722.423 262.998 722.14 263.28C721.858 263.563 721.634 263.898 721.481 264.267C721.329 264.635 721.25 265.031 721.25 265.43C721.25 266.236 721.57 267.009 722.14 267.58C722.71 268.15 723.484 268.47 724.29 268.47C725.096 268.47 725.869 268.15 726.44 267.58C727.01 267.009 727.33 266.236 727.33 265.43Z" fill="#F8EBD3"/>
<path d="M724.29 268.47C725.969 268.47 727.33 267.109 727.33 265.43C727.33 263.751 725.969 262.39 724.29 262.39C722.611 262.39 721.25 263.751 721.25 265.43C721.25 267.109 722.611 268.47 724.29 268.47Z" fill="#AAC955"/>
<path d="M802.41 378.51L797.14 378.75C797.52 372.73 798.197 366.773 799.17 360.88C799.49 358.933 799.433 356.687 799 354.14C797.293 344.167 796.643 335.61 797.05 328.47C797.423 321.963 799.37 315.343 802.89 308.61C808.63 297.643 815.67 287.82 824.01 279.14C825.01 278.1 826.143 277.093 827.41 276.12C833.92 271.12 835.32 278.55 835.2 283.03C835.16 284.337 835.147 285.627 835.16 286.9C835.42 306.813 829.537 324.737 817.51 340.67C813.49 345.99 809.637 351.507 805.95 357.22C804.64 359.25 803.92 361.48 803.8 363.97C803.56 368.817 803.097 373.663 802.41 378.51Z" fill="#AAC955"/>
<path d="M635.03 291.08C638.957 291.953 642.037 292.743 644.27 293.45C657.73 297.71 668.91 308.07 676.92 319.83C681.207 326.11 684.253 333.253 686.06 341.26C689.147 354.967 690.357 370.857 689.69 388.93C689.13 394.403 688.423 398.017 687.57 399.77C685.697 403.623 684.067 407.507 682.68 411.42C682.659 411.485 682.619 411.542 682.566 411.585C682.513 411.628 682.448 411.654 682.38 411.661C682.312 411.667 682.243 411.653 682.183 411.621C682.123 411.589 682.073 411.54 682.04 411.48L677.36 403.52C677.307 403.426 677.227 403.348 677.132 403.297C677.036 403.246 676.928 403.224 676.82 403.232C676.711 403.24 676.608 403.279 676.521 403.345C676.434 403.41 676.368 403.498 676.33 403.6C674.2 409.1 672.1 413.99 667.79 418.19C661.623 424.197 654.9 429.42 647.62 433.86C647.073 434.193 646.323 434.96 645.37 436.16L644.96 436.38C644.711 436.518 644.431 436.59 644.147 436.589C643.862 436.589 643.582 436.517 643.333 436.379C643.084 436.241 642.875 436.042 642.724 435.801C642.573 435.56 642.485 435.284 642.47 435L642.06 427.27L642.32 426.74C642.36 426.667 642.42 426.64 642.5 426.66C642.58 426.687 642.67 426.713 642.77 426.74C642.99 427.813 643.59 428.53 644.57 428.89C648.13 430.2 650.96 428.72 650.97 424.82C650.97 423.587 650.93 422.36 650.85 421.14C656.277 417.42 660.447 412.747 663.36 407.12C667.71 398.74 668.11 388.13 661.17 381.04C655.1 374.83 646.63 376.15 639.72 380.6C630.32 382.787 621.107 385.493 612.08 388.72C608.54 384.173 605.53 379.68 603.05 375.24C599.05 368.08 598.73 359.39 600.52 351.57C601.54 347.13 603.79 342.85 605.55 338.59C608.523 331.357 610.267 324.523 610.78 318.09C610.973 315.603 610.623 315.527 609.73 317.86C605.9 327.82 601.26 336.81 591.23 341.44C585.357 344.147 578.31 346.07 570.09 347.21C568.11 347.49 566.497 347.013 565.25 345.78C564.95 345.48 564.6 345.397 564.2 345.53C560.69 346.68 522.75 357.66 525.17 346.95C525.18 346.902 525.178 346.853 525.162 346.807C525.147 346.761 525.119 346.719 525.082 346.688C525.046 346.656 525.001 346.635 524.953 346.626C524.905 346.618 524.856 346.623 524.81 346.64C519.523 348.58 514.063 349.863 508.43 350.49C499.95 351.5 488.71 351.97 480.89 348.51C474.97 345.9 478.63 340.32 481.77 337.49C486.33 333.39 491.687 330.51 497.84 328.85C497.906 328.831 497.967 328.795 498.015 328.745C498.063 328.695 498.096 328.634 498.113 328.567C498.129 328.5 498.127 328.429 498.107 328.363C498.087 328.297 498.05 328.237 498 328.19C487.91 319.16 487.96 302.99 495.38 292.12C496.827 290 498.62 288.297 500.76 287.01C501.069 286.825 501.422 286.727 501.785 286.725C502.147 286.723 502.504 286.818 502.82 287C503.92 287.633 504.417 288.567 504.31 289.8C503.94 294.11 504.99 300.05 508.15 303.34C508.583 303.793 508.853 303.71 508.96 303.09C509.147 301.923 509.443 300.78 509.85 299.66C515.77 283.27 530.27 279.23 546.3 279.18C553.72 279.153 561.173 279.547 568.66 280.36C590.75 282.75 612.65 287.05 635.03 291.08Z" fill="#1F2627"/>
<path d="M409.91 382.29C402.417 382.883 395.317 384.82 388.61 388.1C366.51 398.907 348.057 414.13 333.25 433.77C331.417 436.203 328.947 440.523 325.84 446.73C317.287 434.037 308.833 421.53 300.48 409.21C295.547 401.93 294.507 393.85 297.36 384.97C297.887 383.337 298.57 381.767 299.41 380.26C299.63 379.873 299.617 379.493 299.37 379.12L283.78 355.61L278.29 346.77C276.99 344.537 274.603 340.82 271.13 335.62C266.43 328.59 268.45 319.08 272.98 312.31C279.78 302.15 289.183 294.013 301.19 287.9C310.24 283.3 321.26 282.37 327.53 291.6C335.223 302.913 344.827 316.927 356.34 333.64C356.867 334.413 357.413 335.19 357.98 335.97C358.118 336.161 358.307 336.31 358.526 336.398C358.746 336.487 358.986 336.512 359.22 336.47C367.42 334.903 374.28 336.53 379.8 341.35C383.3 344.4 386.27 349.32 389.24 353.47C396.073 363.063 402.963 372.67 409.91 382.29ZM316 359.72C326.313 350.347 338.787 342.91 353.42 337.41C355.36 336.677 355.297 336.243 353.23 336.11C349.23 335.85 344.983 336.6 340.49 338.36C324.64 344.56 311.34 357.67 303.05 372.02C302.999 372.103 302.981 372.203 302.997 372.302C303.014 372.4 303.064 372.492 303.14 372.56L303.43 372.81C303.523 372.89 303.607 372.883 303.68 372.79C308.167 367.463 312.273 363.107 316 359.72Z" fill="#081817"/>
<path d="M793.44 377.53C791.64 377.703 789.877 378.177 788.15 378.95C787.95 375.22 787.4 366.33 784.5 363.76C783.433 362.82 782.367 361.907 781.3 361.02C780.86 360.653 780.707 360.75 780.84 361.31L785.14 378.8L779.42 378.13L776.65 371.51C776.486 371.119 776.233 370.773 775.911 370.498C775.59 370.224 775.209 370.029 774.8 369.93C761.39 366.69 750.78 360.87 741.89 349.83C739.98 347.45 734.12 339.63 737.19 336.75C738.363 335.643 739.763 335.24 741.39 335.54C752.703 337.647 763.07 342.273 772.49 349.42C773.397 350.107 773.547 349.967 772.94 349C766.09 338.13 765.63 322.16 766.91 309.91C767.337 305.837 768.107 302.45 769.22 299.75C770.25 297.23 773.1 296.02 775.48 297.73C776.567 298.517 777.5 299.46 778.28 300.56C783.573 308.033 787.913 316.543 791.3 326.09C793.753 332.983 794.613 339.6 793.88 345.94C793.307 350.94 792.64 355.977 791.88 361.05C791.373 364.45 791.483 367.603 792.21 370.51C792.95 373.49 793.36 375.83 793.44 377.53Z" fill="#AAC955"/>
<path d="M612.08 388.72C601.093 391.953 590.097 395.187 579.09 398.42C579.01 398.447 577.087 398.933 573.32 399.88C570.32 400.64 567.42 401.74 564.62 403.18C563.28 400.507 561.56 398.013 559.46 395.7C558.54 394.69 557.34 394.22 556.23 393.49C555.677 393.123 555.733 392.94 556.4 392.94C561.487 392.947 566.937 392.983 572.75 393.05C573.97 393.063 575.09 392.877 576.11 392.49C576.45 392.36 576.743 392.131 576.952 391.833C577.16 391.535 577.274 391.181 577.28 390.817C577.285 390.453 577.181 390.096 576.982 389.792C576.782 389.487 576.496 389.25 576.16 389.11C575.173 388.697 574.11 388.397 572.97 388.21C563.957 386.723 554.54 386.477 544.72 387.47C542.793 387.663 541.117 388.25 539.69 389.23C537.47 390.75 539.01 393.25 540.96 393.96C541.413 394.12 541.453 394.35 541.08 394.65C537.233 397.777 535.407 402.05 535.6 407.47C535.613 407.843 535.433 408.047 535.06 408.08L525.89 408.85C525.543 408.877 525.33 408.723 525.25 408.39C524.743 406.197 523.833 403.803 522.52 401.21C520.933 398.077 518.427 396.46 515 396.36C515.467 396.427 515.837 396.343 516.11 396.11C516.277 395.97 516.337 395.763 516.29 395.49L525.4 395.57C525.859 395.572 526.305 395.42 526.666 395.139C527.027 394.858 527.282 394.464 527.39 394.02C528.19 390.78 525.28 390.33 523.06 389.8C519.587 388.967 516.31 389.167 513.23 390.4C510.757 380.6 509.033 370.463 508.06 359.99C507.76 356.817 507.883 353.65 508.43 350.49C514.063 349.863 519.523 348.58 524.81 346.64C524.855 346.623 524.905 346.618 524.953 346.626C525.001 346.635 525.045 346.656 525.082 346.688C525.119 346.719 525.147 346.761 525.162 346.807C525.178 346.853 525.18 346.902 525.17 346.95C522.75 357.66 560.69 346.68 564.2 345.53C564.6 345.397 564.95 345.48 565.25 345.78C566.497 347.013 568.11 347.49 570.09 347.21C578.31 346.07 585.357 344.147 591.23 341.44C601.26 336.81 605.9 327.82 609.73 317.86C610.623 315.527 610.973 315.603 610.78 318.09C610.267 324.523 608.523 331.357 605.55 338.59C603.79 342.85 601.54 347.13 600.52 351.57C598.73 359.39 599.05 368.08 603.05 375.24C605.53 379.68 608.54 384.173 612.08 388.72Z" fill="#E7BA8F"/>
<path d="M810.34 378.76C808.673 378.273 806.86 378.27 804.9 378.75C806.98 364.56 809.95 350.21 822.43 341.35C829.857 336.077 838.19 331.707 847.43 328.24C849.757 327.367 851.877 326.92 853.79 326.9C860.16 326.83 856.3 333.68 854.35 336.05C846.557 345.583 838.083 353.353 828.93 359.36C824.457 362.293 819.897 365.113 815.25 367.82C811.95 369.74 811.47 375.27 810.34 378.76Z" fill="#AAC955"/>
<path d="M316 359.72C312.273 363.107 308.167 367.463 303.68 372.79C303.607 372.883 303.523 372.89 303.43 372.81L303.14 372.56C303.064 372.492 303.014 372.4 302.997 372.302C302.981 372.203 302.999 372.104 303.05 372.02C311.34 357.67 324.64 344.56 340.49 338.36C344.983 336.6 349.23 335.85 353.23 336.11C355.297 336.243 355.36 336.677 353.42 337.41C338.787 342.91 326.313 350.347 316 359.72Z" fill="#C5C6C1"/>
<path d="M283.78 355.61L229.26 398.2C197.087 423.233 164.83 448.163 132.49 472.99C131.55 473.717 130.407 474.293 129.06 474.72L120.03 469.52L226.32 387.01L278.29 346.77L283.78 355.61Z" fill="#C5C6C1"/>
<path d="M788.15 378.95C786.91 379.077 785.907 379.027 785.14 378.8L780.84 361.31C780.707 360.75 780.86 360.653 781.3 361.02C782.367 361.907 783.433 362.82 784.5 363.76C787.4 366.33 787.95 375.22 788.15 378.95Z" fill="#F8EBD3"/>
<path d="M793.44 377.53C792.693 379.17 793.927 379.577 797.14 378.75L802.41 378.51C802.643 379.163 803.473 379.243 804.9 378.75C806.86 378.27 808.673 378.273 810.34 378.76L822.15 378.97C822.423 378.974 822.691 379.041 822.934 379.164C823.178 379.288 823.389 379.466 823.553 379.684C823.717 379.902 823.829 380.155 823.881 380.423C823.932 380.691 823.922 380.967 823.85 381.23L815.7 410.82L810.96 427.47C809.773 427.71 808.61 427.843 807.47 427.87C798.75 428.077 790.03 428.073 781.31 427.86C780.343 427.833 779.45 427.647 778.63 427.3L773.88 410.23C771.2 400.923 768.607 391.99 766.1 383.43C765.84 382.55 765.68 381.753 765.62 381.04C765.5 379.653 766.137 378.96 767.53 378.96L779.27 378.97C779.523 378.97 779.643 378.843 779.63 378.59C779.623 378.457 779.553 378.303 779.42 378.13L785.14 378.8C785.907 379.027 786.91 379.077 788.15 378.95C789.877 378.177 791.64 377.703 793.44 377.53Z" fill="#1F2627"/>
<path d="M650.85 421.14C649.45 420.44 647.797 420.207 645.89 420.44C644.617 420.593 643.743 421.127 643.27 422.04C642.63 423.273 642.463 424.84 642.77 426.74C642.67 426.713 642.58 426.687 642.5 426.66C642.42 426.64 642.36 426.667 642.32 426.74L642.06 427.27C638.433 427.49 635.087 427.26 632.02 426.58C631.62 416.63 630.76 406.89 630.12 397.14C629.83 392.76 634.17 387.97 636.72 384.42C637.707 383.747 638.707 382.473 639.72 380.6C646.63 376.15 655.1 374.83 661.17 381.04C668.11 388.13 667.71 398.74 663.36 407.12C660.447 412.747 656.277 417.42 650.85 421.14ZM640.72 396.82C640.65 396.811 640.584 396.786 640.526 396.746C640.469 396.707 640.421 396.654 640.388 396.592C640.355 396.531 640.337 396.462 640.335 396.392C640.334 396.322 640.349 396.253 640.38 396.19C642.86 390.97 646.06 386.55 652.22 386.06C656.71 385.71 658.47 388.33 660.19 391.76C660.297 391.973 660.453 392.023 660.66 391.91L660.9 391.77C660.98 391.723 661.007 391.657 660.98 391.57C659.687 387.65 657.093 385.54 653.2 385.24C644.88 384.59 640.92 392.63 637.45 398.56C636.92 399.47 636.66 400.93 636.85 401.83C637.943 407.143 638.7 412.46 639.12 417.78C639.147 418.173 639.357 418.36 639.75 418.34C644.04 418.15 646.81 415.57 648.98 412.1C651.08 408.75 651.29 405.31 649.45 401.82C647.7 398.5 644.12 397.31 640.72 396.82Z" fill="#E7BA8F"/>
<path d="M639.72 380.6C638.707 382.473 637.707 383.747 636.72 384.42C628.76 386.233 621.047 388.233 613.58 390.42C613.46 390.453 613.373 390.51 613.32 390.59C613.26 390.677 613.213 390.78 613.18 390.9C611.8 391.08 610.34 391.19 609 391.58C599.607 394.307 590.207 397.017 580.8 399.71C576.56 400.92 570.24 402.28 565.03 404.03C565.003 403.817 564.867 403.533 564.62 403.18C567.42 401.74 570.32 400.64 573.32 399.88C577.087 398.933 579.01 398.447 579.09 398.42C590.097 395.187 601.093 391.953 612.08 388.72C621.107 385.493 630.32 382.787 639.72 380.6Z" fill="#B67453"/>
<path d="M325.84 446.73C328.947 440.523 331.417 436.203 333.25 433.77C348.057 414.13 366.51 398.907 388.61 388.1C395.317 384.82 402.417 382.883 409.91 382.29C419.4 388.2 405.57 404.67 401.17 409.56C385.6 426.85 366.36 441.13 344.83 449.81C339.96 451.77 334.36 453.66 329.44 451.95C326.873 451.057 325.673 449.317 325.84 446.73Z" fill="#FDFF6D"/>
<path d="M636.72 384.42C634.17 387.97 629.83 392.76 630.12 397.14C630.76 406.89 631.62 416.63 632.02 426.58L629.2 426.03C629.128 426.017 629.054 426.021 628.985 426.043C628.915 426.066 628.853 426.105 628.802 426.157C628.751 426.21 628.715 426.274 628.695 426.345C628.676 426.415 628.674 426.489 628.69 426.56C631.51 438.79 634.2 451.13 634.9 463.71C635.51 474.68 631.12 480.03 621.82 484.91C603.747 494.383 587.443 501.97 572.91 507.67C572.81 507.709 572.72 507.768 572.644 507.844C572.567 507.919 572.507 508.008 572.466 508.107C572.425 508.206 572.404 508.312 572.405 508.419C572.406 508.526 572.428 508.632 572.47 508.73L580.69 527.47C579.537 528.077 578.347 528.727 577.12 529.42C571.427 532.633 566.883 536.73 563.49 541.71C555.46 553.5 556.24 567.9 559.69 581.3C560.09 582.853 560.3 584.44 560.32 586.06C561.587 591.56 562.467 597.123 562.96 602.75C563.067 603.963 562.96 605.157 562.64 606.33C562.553 606.657 562.363 606.91 562.07 607.09C560.997 607.73 559.557 607.77 557.75 607.21C556.017 605.517 554.827 604.217 554.18 603.31C546.86 592.95 542.16 580.57 538.53 568.5C535.25 557.607 534.523 547.26 536.35 537.46C537.023 536.193 537.603 534.83 538.09 533.37C540.51 526.08 544.52 521.84 550.12 516.89C551.247 515.897 551.1 515.65 549.68 516.15C536.84 520.67 531.14 515.68 528.9 503.48C527.667 496.747 526.327 489.447 524.88 481.58C524.866 481.501 524.835 481.426 524.788 481.36C524.742 481.295 524.682 481.24 524.613 481.2C524.543 481.16 524.466 481.136 524.386 481.129C524.306 481.122 524.225 481.133 524.15 481.16C515.243 484.38 505.96 487.78 496.3 491.36C488.87 494.11 483.31 496.42 483.33 505.66C483.343 510.34 483.427 515.123 483.58 520.01C483.593 520.403 483.8 520.597 484.2 520.59C493.88 520.35 503.653 520.373 513.52 520.66C513.837 520.668 514.148 520.741 514.436 520.874C514.723 521.007 514.981 521.198 515.192 521.434C515.404 521.669 515.565 521.946 515.666 522.246C515.767 522.547 515.806 522.864 515.78 523.18L515.52 526.22C515.48 526.727 515.713 526.957 516.22 526.91L518.15 526.74C518.817 526.687 519.187 526.99 519.26 527.65L519.76 532.05C519.827 532.65 519.557 532.95 518.95 532.95L422.65 533.04C421.71 533.04 421.293 532.577 421.4 531.65L421.82 527.99C421.913 527.197 422.357 526.773 423.15 526.72L425.14 526.6C425.507 526.573 425.71 526.377 425.75 526.01L426.15 522.07C426.162 521.929 426.205 521.792 426.276 521.67C426.347 521.547 426.444 521.441 426.56 521.36C427.447 520.733 428.437 520.42 429.53 520.42C444.73 520.42 459.48 520.463 473.78 520.55C474.267 520.557 474.507 520.317 474.5 519.83C474.38 513.243 474.333 508.52 474.36 505.66C474.407 499.84 476.403 495.363 480.35 492.23C482.73 490.34 486.54 489.02 489.61 487.93C500.943 483.89 512.24 479.88 523.5 475.9C523.601 475.864 523.685 475.793 523.738 475.701C523.792 475.61 523.81 475.503 523.79 475.4C522.93 471.18 522.007 466.873 521.02 462.48C520.473 460.02 520.537 457.653 521.21 455.38C522.237 451.927 525.157 449.793 529.97 448.98C530.823 450.433 532.327 450.977 534.48 450.61C536.7 450.24 540.09 449.74 540.57 447.1C540.623 446.8 540.67 446.803 540.71 447.11C540.723 447.243 540.757 447.37 540.81 447.49C540.857 447.584 540.937 447.658 541.034 447.698C541.131 447.739 541.24 447.743 541.34 447.71C547.28 445.75 552.32 444.36 556.65 450.39C560.22 455.37 567.32 466.68 574.93 464.18C576.77 463.58 578.637 462.877 580.53 462.07C588.59 458.637 595.99 454.333 602.73 449.16C609.67 444.087 614.11 437.707 616.05 430.02C616.717 427.36 616.87 423.987 616.51 419.9C615.663 410.307 614.55 400.737 613.17 391.19C613.177 391.097 613.18 391 613.18 390.9C613.213 390.78 613.26 390.677 613.32 390.59C613.373 390.51 613.46 390.453 613.58 390.42C621.047 388.233 628.76 386.233 636.72 384.42ZM546.09 468.79C546.359 468.802 546.621 468.879 546.854 469.014C547.086 469.15 547.282 469.34 547.425 469.569C547.568 469.797 547.653 470.057 547.673 470.325C547.693 470.594 547.647 470.863 547.54 471.11C547.12 472.07 546.39 472.777 545.35 473.23C540.83 475.17 536.467 476.757 532.26 477.99C531.48 478.217 531.207 478.723 531.44 479.51C532.28 482.303 533.45 484.83 534.95 487.09C540.13 494.88 551.43 496.1 559.19 491.5C564.02 488.64 566.76 483.48 563.17 478.2C560.957 474.96 558.82 471.7 556.76 468.42C555.01 465.64 551.35 461.33 547.98 460.98C541.8 460.34 535.793 461.297 529.96 463.85C528.953 464.297 528.48 465.07 528.54 466.17L528.91 472.55C528.97 473.63 529.51 473.983 530.53 473.61C534.07 472.31 537.787 470.95 541.68 469.53C543.193 468.977 544.663 468.73 546.09 468.79ZM479.96 503.49C480.07 500.72 481.33 498.13 482.82 495.83C483.553 494.697 483.377 494.53 482.29 495.33C479.71 497.237 478.317 500.107 478.11 503.94C477.823 509.287 477.823 514.677 478.11 520.11C478.143 520.623 478.41 520.827 478.91 520.72C478.983 520.707 479.07 520.69 479.17 520.67C479.436 520.614 479.673 520.464 479.839 520.248C480.006 520.032 480.091 519.764 480.08 519.49C479.807 513.537 479.767 508.203 479.96 503.49Z" fill="#1F2627"/>
<path d="M640.72 396.82C644.12 397.31 647.7 398.5 649.45 401.82C651.29 405.31 651.08 408.75 648.98 412.1C646.81 415.57 644.04 418.15 639.75 418.34C639.357 418.36 639.147 418.173 639.12 417.78C638.7 412.46 637.943 407.143 636.85 401.83C636.66 400.93 636.92 399.47 637.45 398.56C640.92 392.63 644.88 384.59 653.2 385.24C657.093 385.54 659.687 387.65 660.98 391.57C661.007 391.657 660.98 391.723 660.9 391.77L660.66 391.91C660.453 392.023 660.297 391.973 660.19 391.76C658.47 388.33 656.71 385.71 652.22 386.06C646.06 386.55 642.86 390.97 640.38 396.19C640.349 396.253 640.334 396.322 640.335 396.392C640.337 396.462 640.355 396.531 640.388 396.592C640.421 396.654 640.469 396.707 640.526 396.746C640.584 396.786 640.651 396.811 640.72 396.82Z" fill="#B67453"/>
<path d="M564.62 403.18C564.867 403.533 565.003 403.817 565.03 404.03C565.33 405.47 565.633 406.883 565.94 408.27C567.75 416.42 563.95 426.13 554.85 427.36C544.68 428.73 537.73 419.57 536.14 410.27C536.08 409.943 535.887 409.8 535.56 409.84L526.17 410.92C526.077 410.931 525.987 410.962 525.907 411.011C525.827 411.06 525.759 411.126 525.706 411.203C525.654 411.281 525.619 411.37 525.604 411.462C525.589 411.555 525.595 411.65 525.62 411.74C526.253 414.027 526.13 415.79 525.25 417.03C524.49 418.103 524.137 417.983 524.19 416.67C524.43 410.83 522.25 400.29 515.65 398.38C514.69 397.72 513.38 397.667 511.72 398.22C508.533 399.28 506.133 401.7 504.52 405.48C501.34 412.92 503.79 424.02 510.57 429.16C512.56 430.67 515.74 431.79 517.53 429.43C518.03 428.997 518.3 429.04 518.34 429.56C518.347 429.624 518.329 429.691 518.29 429.75L516.08 433.32C506.09 431.98 501.68 423.01 501.12 413.76C500.61 405.46 505.29 395.43 515 396.36C518.427 396.46 520.933 398.077 522.52 401.21C523.833 403.803 524.743 406.197 525.25 408.39C525.33 408.723 525.543 408.877 525.89 408.85L535.06 408.08C535.433 408.047 535.613 407.843 535.6 407.47C535.407 402.05 537.233 397.777 541.08 394.65C541.453 394.35 541.413 394.12 540.96 393.96C539.01 393.25 537.47 390.75 539.69 389.23C541.117 388.25 542.793 387.663 544.72 387.47C554.54 386.477 563.957 386.723 572.97 388.21C574.11 388.397 575.173 388.697 576.16 389.11C576.496 389.25 576.782 389.487 576.982 389.792C577.181 390.096 577.285 390.453 577.28 390.817C577.274 391.181 577.16 391.535 576.952 391.833C576.743 392.131 576.45 392.36 576.11 392.49C575.09 392.877 573.97 393.063 572.75 393.05C566.937 392.983 561.487 392.947 556.4 392.94C555.733 392.94 555.677 393.123 556.23 393.49C557.34 394.22 558.54 394.69 559.46 395.7C561.56 398.013 563.28 400.507 564.62 403.18ZM556.324 425.183C559.537 424.12 562.077 421.466 563.386 417.803C564.696 414.141 564.666 409.77 563.305 405.653C562.631 403.615 561.65 401.7 560.418 400.018C559.186 398.336 557.728 396.92 556.126 395.85C554.525 394.781 552.811 394.079 551.083 393.785C549.355 393.491 547.647 393.611 546.056 394.137C542.843 395.199 540.303 397.854 538.993 401.517C537.684 405.179 537.714 409.549 539.075 413.666C539.749 415.705 540.73 417.62 541.962 419.302C543.194 420.984 544.652 422.4 546.254 423.47C547.855 424.539 549.569 425.241 551.297 425.535C553.025 425.829 554.733 425.709 556.324 425.183Z" fill="#1F2627"/>
<path d="M516.29 395.49L514.66 395.04C514.313 394.947 514.103 394.72 514.03 394.36L513.23 390.4C516.31 389.167 519.587 388.967 523.06 389.8C525.28 390.33 528.19 390.78 527.39 394.02C527.282 394.464 527.027 394.858 526.666 395.139C526.305 395.42 525.859 395.572 525.4 395.57L516.29 395.49Z" fill="#1F2627"/>
<path d="M613.18 390.9C613.18 391 613.177 391.097 613.17 391.19C612.543 393.743 612.293 395.967 612.42 397.86C612.647 401.387 613.31 409.233 614.41 421.4C615.42 432.49 608.49 440.12 602.73 449.16C595.99 454.333 588.59 458.637 580.53 462.07C578.637 462.877 576.77 463.58 574.93 464.18C567.32 466.68 560.22 455.37 556.65 450.39C552.32 444.36 547.28 445.75 541.34 447.71C541.24 447.743 541.131 447.739 541.034 447.698C540.937 447.658 540.857 447.584 540.81 447.49C540.757 447.37 540.723 447.243 540.71 447.11C540.67 446.803 540.623 446.8 540.57 447.1C540.09 449.74 536.7 450.24 534.48 450.61C532.327 450.977 530.823 450.433 529.97 448.98C523.09 446.747 518.107 444.757 515.02 443.01C513.813 442.323 513.36 441.067 513.66 439.24C513.987 437.24 514.793 435.267 516.08 433.32L518.29 429.75C518.329 429.691 518.347 429.624 518.34 429.56C518.3 429.04 518.03 428.997 517.53 429.43C517.23 428.13 516.75 426.75 516.67 425.42C516.123 416.553 515.783 407.54 515.65 398.38C522.25 400.29 524.43 410.83 524.19 416.67C524.137 417.983 524.49 418.103 525.25 417.03C526.13 415.79 526.253 414.027 525.62 411.74C525.595 411.65 525.589 411.555 525.604 411.462C525.619 411.37 525.654 411.281 525.706 411.203C525.758 411.126 525.827 411.06 525.907 411.011C525.987 410.962 526.077 410.931 526.17 410.92L535.56 409.84C535.887 409.8 536.08 409.943 536.14 410.27C537.73 419.57 544.68 428.73 554.85 427.36C563.95 426.13 567.75 416.42 565.94 408.27C565.633 406.883 565.33 405.47 565.03 404.03C570.24 402.28 576.56 400.92 580.8 399.71C590.207 397.017 599.607 394.307 609 391.58C610.34 391.19 611.8 391.08 613.18 390.9Z" fill="#E7BA8F"/>
<path d="M613.17 391.19C614.55 400.737 615.663 410.307 616.51 419.9C616.87 423.987 616.717 427.36 616.05 430.02C614.11 437.707 609.67 444.087 602.73 449.16C608.49 440.12 615.42 432.49 614.41 421.4C613.31 409.233 612.647 401.387 612.42 397.86C612.293 395.967 612.543 393.743 613.17 391.19Z" fill="#D8BE9C"/>
<path d="M539.075 413.667C541.911 422.24 549.633 427.396 556.324 425.183C563.015 422.97 566.14 414.227 563.305 405.653C560.469 397.08 552.747 391.924 546.056 394.137C539.365 396.35 536.24 405.093 539.075 413.667Z" fill="#E7BA8F"/>
<path d="M650.85 421.14C650.93 422.36 650.97 423.587 650.97 424.82C650.96 428.72 648.13 430.2 644.57 428.89C643.59 428.53 642.99 427.813 642.77 426.74C642.463 424.84 642.63 423.273 643.27 422.04C643.743 421.127 644.617 420.593 645.89 420.44C647.797 420.207 649.45 420.44 650.85 421.14Z" fill="#FDFDFD"/>
<path d="M632.02 426.58C635.087 427.26 638.433 427.49 642.06 427.27L642.47 435C642.485 435.284 642.573 435.56 642.724 435.801C642.875 436.042 643.084 436.241 643.333 436.379C643.582 436.517 643.862 436.589 644.146 436.59C644.431 436.59 644.711 436.518 644.96 436.38L645.37 436.16L651.27 457.82C652.637 461.313 653.963 463.953 655.25 465.74C661.977 475.06 669.91 483.697 679.05 491.65C679.128 491.717 679.19 491.8 679.232 491.893C679.275 491.987 679.297 492.088 679.297 492.192C679.297 492.295 679.275 492.397 679.232 492.492C679.19 492.586 679.128 492.671 679.05 492.74C663.91 506.08 650.4 522.44 638.86 538.62C636.667 541.693 634.527 544.663 632.44 547.53C630.227 548.057 628.147 548.607 626.2 549.18C618.547 551.427 610.97 553.08 603.47 554.14C596.4 555.14 588.25 555.61 581.62 552.67C575.17 549.81 573.88 541.35 578.28 536.27C580.207 534.05 581.33 532.053 581.65 530.28C581.07 529.38 580.75 528.443 580.69 527.47L572.47 508.73C572.428 508.632 572.405 508.526 572.405 508.419C572.404 508.312 572.425 508.206 572.466 508.107C572.507 508.008 572.567 507.919 572.644 507.844C572.72 507.768 572.81 507.709 572.91 507.67C587.443 501.97 603.747 494.383 621.82 484.91C631.12 480.03 635.51 474.68 634.9 463.71C634.2 451.13 631.51 438.79 628.69 426.56C628.674 426.489 628.676 426.415 628.695 426.345C628.715 426.274 628.751 426.21 628.802 426.157C628.853 426.105 628.915 426.066 628.985 426.043C629.054 426.021 629.128 426.017 629.2 426.03L632.02 426.58Z" fill="#B67453"/>
<path d="M755.14 519.88C738.87 524.1 721.79 532.07 707.39 539.91C691.95 548.317 676.957 557.377 662.41 567.09C649.237 576.23 636.03 585.217 622.79 594.05C618.737 596.757 614.843 598.99 611.11 600.75C609.57 601.477 608.167 601.127 606.9 599.7C606.669 599.437 606.547 599.093 606.56 598.74C606.627 596.96 606.943 595.373 607.51 593.98C614.1 577.65 622.7 562.19 632.44 547.53C634.527 544.663 636.667 541.693 638.86 538.62C650.4 522.44 663.91 506.08 679.05 492.74C679.128 492.671 679.19 492.586 679.232 492.492C679.275 492.397 679.297 492.295 679.297 492.192C679.297 492.088 679.275 491.987 679.232 491.893C679.19 491.8 679.128 491.717 679.05 491.65C669.91 483.697 661.977 475.06 655.25 465.74C653.963 463.953 652.637 461.313 651.27 457.82C665.337 454.02 679.243 451.97 692.99 451.67C722.46 451.04 756.79 466.48 762.71 498.79C763.68 504.07 764.37 514.57 760.02 518.02C759.24 518.633 757.613 519.253 755.14 519.88Z" fill="#271F25"/>
<path d="M546.09 468.79C544.663 468.73 543.193 468.977 541.68 469.53C537.787 470.95 534.07 472.31 530.53 473.61C529.51 473.983 528.97 473.63 528.91 472.55L528.54 466.17C528.48 465.07 528.953 464.297 529.96 463.85C535.793 461.297 541.8 460.34 547.98 460.98C551.35 461.33 555.01 465.64 556.76 468.42C558.82 471.7 560.957 474.96 563.17 478.2C566.76 483.48 564.02 488.64 559.19 491.5C551.43 496.1 540.13 494.88 534.95 487.09C533.45 484.83 532.28 482.303 531.44 479.51C531.207 478.723 531.48 478.217 532.26 477.99C536.467 476.757 540.83 475.17 545.35 473.23C546.39 472.777 547.12 472.07 547.54 471.11C547.647 470.863 547.693 470.594 547.673 470.325C547.653 470.057 547.568 469.797 547.425 469.569C547.283 469.34 547.086 469.15 546.854 469.014C546.621 468.879 546.359 468.802 546.09 468.79Z" fill="#E7BA8F"/>
<path d="M120.03 469.52L129.06 474.72C129.487 476.327 129.953 477.903 130.46 479.45C131.1 481.403 131.437 482.993 131.47 484.22C131.617 489.06 129.977 493.487 126.55 497.5C123.397 499.393 120.29 500.757 117.23 501.59C112.11 501.27 108.11 501.06 104.1 497.75C101.547 495.637 99.8867 493.04 99.12 489.96C97.2133 482.267 99.3967 476.087 105.67 471.42C109.65 468.453 114.437 467.82 120.03 469.52Z" fill="#4C4C4C"/>
<path d="M482.82 495.83C481.33 498.13 480.07 500.72 479.96 503.49C479.767 508.203 479.807 513.537 480.08 519.49C480.091 519.764 480.006 520.032 479.839 520.248C479.673 520.464 479.436 520.614 479.17 520.67C479.07 520.69 478.983 520.707 478.91 520.72C478.41 520.827 478.143 520.623 478.11 520.11C477.823 514.677 477.823 509.287 478.11 503.94C478.317 500.107 479.71 497.237 482.29 495.33C483.377 494.53 483.553 494.697 482.82 495.83Z" fill="#F8EBD3"/>
<path d="M126.55 497.5L153.52 726.95L143.78 724.37L117.23 501.59C120.29 500.757 123.397 499.393 126.55 497.5Z" fill="#A9A9A9"/>
<path d="M755.14 519.88C768.24 523.433 777.153 525.77 781.88 526.89C803.22 531.94 820.62 545.61 826.53 566.91C828.05 572.383 829.28 577.697 830.22 582.85C831.22 588.317 832.07 593.82 832.77 599.36C837.65 634.433 841.73 669.63 845.01 704.95C846.27 718.46 847.02 732.09 844.26 744.95C840.493 762.437 830.617 775.07 814.63 782.85C810.263 784.97 803.56 787.42 794.52 790.2C781.853 792.667 769.04 794.587 756.08 795.96C755.007 796.073 753.873 796.323 752.68 796.71C751.013 797.25 749.87 797.5 749.25 797.46C746.883 797.307 744.56 797.427 742.28 797.82L646.71 797.76C647.13 797.387 647.677 797.257 648.35 797.37C648.43 797.39 648.487 797.36 648.52 797.28L648.65 796.98C648.73 796.773 648.66 796.663 648.44 796.65C644.74 796.437 641.35 795.853 638.27 794.9C630 792.34 626.36 784.22 623.45 776.77C621.017 769.01 618.273 761.413 615.22 753.98C613.5 749.78 611.32 746.397 608.68 743.83C609.693 742.103 611.123 740.813 612.97 739.96C625.91 734.01 639.89 730.54 653.66 727.96C654.036 727.889 654.375 727.692 654.623 727.401C654.87 727.109 655.011 726.742 655.02 726.36C655.88 695.453 656.643 664.75 657.31 634.25C657.69 616.63 658.683 599.047 660.29 581.5C660.717 576.793 661.423 571.99 662.41 567.09C676.957 557.377 691.95 548.317 707.39 539.91C721.79 532.07 738.87 524.1 755.14 519.88ZM712.07 720.11C694.9 720.98 678.95 722.64 661.16 726.35C661.073 726.37 661.037 726.423 661.05 726.51L661.11 726.94C661.118 727.008 661.151 727.071 661.203 727.115C661.255 727.16 661.322 727.183 661.39 727.18C684.823 725.813 700.257 725.117 707.69 725.09C736.803 724.983 762.667 724.873 785.28 724.76C786.073 724.76 786.89 724.427 787.73 723.76C788.003 723.547 788.01 723.197 787.75 722.71C787.689 722.594 787.599 722.494 787.489 722.421C787.379 722.348 787.252 722.303 787.12 722.29C770.42 720.597 755.377 719.693 741.99 719.58C733.75 719.507 725.653 719.617 717.7 719.91C717.26 719.923 717.02 719.71 716.98 719.27C715.053 696.523 713.9 674.02 713.52 651.76C712.83 611.75 730.74 572.83 766.05 552.96C777.52 546.5 789.36 543.67 802.53 542.61C802.746 542.591 802.952 542.508 803.121 542.372C803.29 542.235 803.415 542.053 803.479 541.846C803.544 541.64 803.545 541.42 803.483 541.214C803.42 541.008 803.298 540.825 803.13 540.69C802.543 540.203 801.873 539.887 801.12 539.74C795.32 538.593 789.32 538.96 783.12 540.84C768.84 545.18 757.54 551.92 746.84 562.16C725.62 582.46 712.63 609.63 710.28 639.23C709.787 645.443 709.567 651.243 709.62 656.63C709.807 676.577 710.837 697.493 712.71 719.38C712.75 719.847 712.537 720.09 712.07 720.11Z" fill="#DDBEDB" fill-opacity="0.91"/>
<path d="M581.65 530.28C576.443 533.293 572.713 537.68 570.46 543.44C567.773 550.313 565.84 556.433 564.66 561.8C562.91 569.77 560.81 577.9 560.32 586.06C560.3 584.44 560.09 582.853 559.69 581.3C556.24 567.9 555.46 553.5 563.49 541.71C566.883 536.73 571.427 532.633 577.12 529.42C578.347 528.727 579.537 528.077 580.69 527.47C580.75 528.443 581.07 529.38 581.65 530.28Z" fill="#8A785E"/>
<path d="M632.44 547.53C622.7 562.19 614.1 577.65 607.51 593.98C606.943 595.373 606.627 596.96 606.56 598.74C606.547 599.093 606.669 599.437 606.9 599.7C608.167 601.127 609.57 601.477 611.11 600.75C614.843 598.99 618.737 596.757 622.79 594.05C636.03 585.217 649.237 576.23 662.41 567.09C661.423 571.99 660.717 576.793 660.29 581.5C658.683 599.047 657.69 616.63 657.31 634.25C656.643 664.75 655.88 695.453 655.02 726.36C655.011 726.742 654.87 727.109 654.623 727.401C654.375 727.692 654.036 727.889 653.66 727.96C639.89 730.54 625.91 734.01 612.97 739.96C611.123 740.813 609.693 742.103 608.68 743.83C591.893 737.157 574.527 733 556.58 731.36C555.58 706.14 555.29 678.817 555.71 649.39C555.93 633.83 556.61 619.77 557.75 607.21C559.557 607.77 560.997 607.73 562.07 607.09C562.363 606.91 562.553 606.657 562.64 606.33C562.96 605.157 563.067 603.963 562.96 602.75C562.467 597.123 561.587 591.56 560.32 586.06C560.81 577.9 562.91 569.77 564.66 561.8C565.84 556.433 567.773 550.313 570.46 543.44C572.713 537.68 576.443 533.293 581.65 530.28C581.33 532.053 580.207 534.05 578.28 536.27C573.88 541.35 575.17 549.81 581.62 552.67C588.25 555.61 596.4 555.14 603.47 554.14C610.97 553.08 618.547 551.427 626.2 549.18C628.147 548.607 630.227 548.057 632.44 547.53Z" fill="#F8EBD3"/>
<path d="M536.35 537.46C534.523 547.26 535.25 557.607 538.53 568.5C542.16 580.57 546.86 592.95 554.18 603.31C554.827 604.217 556.017 605.517 557.75 607.21C556.61 619.77 555.93 633.83 555.71 649.39C555.29 678.817 555.58 706.14 556.58 731.36C549.7 730.973 544.097 731.027 539.77 731.52C525.92 733.09 514.63 740.7 502.94 749.46C502.447 732.593 502.03 715.867 501.69 699.28C501.483 689.613 500.907 680.273 499.96 671.26C498.76 659.93 495.57 649 490.62 638.64C490.574 638.543 490.553 638.436 490.558 638.329C490.562 638.222 490.593 638.118 490.647 638.025C490.701 637.932 490.777 637.854 490.868 637.798C490.96 637.741 491.063 637.708 491.17 637.7C493.21 637.54 495.333 637.43 497.54 637.37C504 637.21 503.16 632.06 503.95 627.57C504.023 627.183 504.257 626.99 504.65 626.99C517.26 626.9 529.34 617.79 529.49 604.29C529.563 597.403 529.663 590.14 529.79 582.5C529.97 571.78 523.37 564.88 513.52 561.95C513.32 561.883 513.167 561.76 513.06 561.58C512.993 561.467 512.967 561.373 512.98 561.3C519.38 551.67 526.38 543.41 536.35 537.46Z" fill="#DBB0CA"/>
<path d="M712.71 719.38C710.837 697.493 709.807 676.577 709.62 656.63C709.567 651.243 709.787 645.443 710.28 639.23C712.63 609.63 725.62 582.46 746.84 562.16C757.54 551.92 768.84 545.18 783.12 540.84C789.32 538.96 795.32 538.593 801.12 539.74C801.873 539.887 802.543 540.203 803.13 540.69C803.298 540.825 803.42 541.008 803.483 541.214C803.545 541.42 803.544 541.64 803.479 541.846C803.415 542.053 803.29 542.235 803.121 542.372C802.952 542.508 802.746 542.591 802.53 542.61C789.36 543.67 777.52 546.5 766.05 552.96C730.74 572.83 712.83 611.75 713.52 651.76C713.9 674.02 715.053 696.523 716.98 719.27C717.02 719.71 717.26 719.923 717.7 719.91C725.653 719.617 733.75 719.507 741.99 719.58C755.377 719.693 770.42 720.597 787.12 722.29C787.252 722.303 787.379 722.348 787.489 722.421C787.599 722.494 787.689 722.594 787.75 722.71C788.01 723.197 788.003 723.547 787.73 723.76C786.89 724.427 786.073 724.76 785.28 724.76C762.667 724.873 736.803 724.983 707.69 725.09C700.257 725.117 684.823 725.813 661.39 727.18C661.322 727.183 661.255 727.16 661.203 727.115C661.151 727.071 661.118 727.008 661.11 726.94L661.05 726.51C661.037 726.423 661.073 726.37 661.16 726.35C678.95 722.64 694.9 720.98 712.07 720.11C712.537 720.09 712.75 719.847 712.71 719.38Z" fill="#1F2627"/>
<path d="M423.96 562.64C423.407 562.047 422.713 562.697 421.88 564.59C419.793 569.337 417.857 574.14 416.07 579C415.903 579.453 415.85 579.843 415.91 580.17C415.977 580.577 416.093 580.59 416.26 580.21L420.93 569.68C422.503 568.02 423.97 566.48 425.33 565.06C426.597 563.74 427.957 562.823 429.41 562.31C432.023 561.403 434.253 560.767 436.1 560.4C442.4 559.167 448.387 557.613 454.06 555.74C456.66 554.887 458.297 555.757 458.97 558.35C460.76 565.29 453.26 569.24 447.61 570.76C442.457 572.147 437.21 573.6 431.87 575.12C429.917 575.673 428.353 577.267 427.18 579.9C426.733 579.953 426.457 580.107 426.35 580.36C424.423 584.913 422.587 589.497 420.84 594.11C420.8 594.217 420.833 594.293 420.94 594.34H420.95C421.057 594.38 421.133 594.347 421.18 594.24C423.02 589.733 424.817 585.203 426.57 580.65C426.677 580.87 426.797 581.02 426.93 581.1C427.177 581.247 427.38 581.2 427.54 580.96C428.813 579.073 430.427 577.837 432.38 577.25C437.34 575.75 442.967 574.757 449.26 574.27C458.193 573.583 467.273 573.03 476.5 572.61C480.37 572.43 481.83 575.62 478.86 578.16C471.73 584.26 464.09 586.12 454.23 586.91C448.35 587.377 442.553 588.23 436.84 589.47C434.333 590.017 432.61 591.377 431.67 593.55C430.977 595.137 431.353 595.45 432.8 594.49C435.96 592.377 439.183 590.99 442.47 590.33C448.99 589.023 455.88 588.137 463.14 587.67C465.573 587.517 467.913 587.547 470.16 587.76C470.42 587.785 470.672 587.868 470.897 588.001C471.122 588.134 471.316 588.315 471.464 588.531C471.613 588.747 471.712 588.993 471.757 589.252C471.801 589.511 471.788 589.776 471.72 590.03C470.94 592.91 465.9 594.67 463.1 595.72C458.067 597.213 452.763 598.627 447.19 599.96C444.343 600.633 442.267 601.547 440.96 602.7C438.253 605.067 437.703 607.77 439.31 610.81C440.663 616.783 441.757 623.087 442.59 629.72C443.03 633.2 443.43 638.25 448.31 638.18C452.617 638.127 455.79 638.15 457.83 638.25C447.117 641.09 436.427 642.823 425.76 643.45C422.667 631.85 420.813 623.47 420.2 618.31C419.313 610.843 418.083 603.323 416.51 595.75C414.99 588.39 413.61 581.06 411.92 573.64C410.96 569.44 410.31 563.65 412.46 559.63C415.38 554.18 422.16 544.76 428.96 546.66C433.3 547.873 436.91 549.387 439.79 551.2C441.44 552.23 442.85 551.92 444.58 551.5C444.784 551.45 444.998 551.449 445.202 551.497C445.407 551.545 445.597 551.642 445.756 551.778C445.916 551.914 446.04 552.086 446.119 552.279C446.198 552.473 446.229 552.682 446.21 552.89C445.903 556.49 443.923 558.467 440.27 558.82C436.443 559.193 432.453 559.577 428.3 559.97C426.38 560.157 424.933 561.047 423.96 562.64ZM425.85 601.55C423.55 604.723 423.667 604.813 426.2 601.82C427.493 600.287 428.827 598.37 430.2 596.07C430.22 596.037 430.223 596 430.21 595.96C430.203 595.94 430.197 595.92 430.19 595.9C430.163 595.82 430.127 595.813 430.08 595.88C428.627 597.767 427.217 599.657 425.85 601.55Z" fill="#E7BA8F"/>
<path d="M512.98 561.3C512.967 561.373 512.993 561.467 513.06 561.58C513.167 561.76 513.32 561.883 513.52 561.95C523.37 564.88 529.97 571.78 529.79 582.5C529.663 590.14 529.563 597.403 529.49 604.29C529.34 617.79 517.26 626.9 504.65 626.99C504.257 626.99 504.023 627.183 503.95 627.57C503.16 632.06 504 637.21 497.54 637.37C495.333 637.43 493.21 637.54 491.17 637.7C491.063 637.708 490.959 637.741 490.868 637.798C490.777 637.854 490.701 637.932 490.647 638.025C490.593 638.118 490.562 638.222 490.557 638.329C490.553 638.436 490.574 638.543 490.62 638.64C495.57 649 498.76 659.93 499.96 671.26C500.907 680.273 501.483 689.613 501.69 699.28C502.03 715.867 502.447 732.593 502.94 749.46L498 753.92C498.187 734.6 498.273 715.46 498.26 696.5C498.25 677.85 496.71 657.94 489.33 641.21C488.87 640.17 488.323 639.21 487.69 638.33C487.463 638.01 487.153 637.853 486.76 637.86L457.83 638.25C455.79 638.15 452.617 638.127 448.31 638.18C443.43 638.25 443.03 633.2 442.59 629.72C441.757 623.087 440.663 616.783 439.31 610.81C439.243 608.117 439.757 605.997 440.85 604.45C442.54 602.07 445.51 602.29 448.25 602.31C459.163 602.383 478.617 602.283 506.61 602.01L505.05 616.33C505.003 616.73 505.177 616.88 505.57 616.78C512.61 614.95 518.7 611.29 518.96 603.12C519.16 596.707 519.373 589.8 519.6 582.4C519.76 576.91 515.3 573.8 510.62 572.35C511.047 568.91 511.507 565.46 512 562C512.047 561.68 512.373 561.447 512.98 561.3Z" fill="#1F2627"/>
<path d="M510.62 572.35C515.3 573.8 519.76 576.91 519.6 582.4C519.373 589.8 519.16 596.707 518.96 603.12C518.7 611.29 512.61 614.95 505.57 616.78C505.177 616.88 505.003 616.73 505.05 616.33L506.61 602.01L507.56 596.59L510.62 572.35Z" fill="#DBB0CA"/>
<path d="M380.77 580.34C381.37 583.88 381.86 587.33 382.83 590.76C389.65 615.087 396.33 639.45 402.87 663.85C414.757 708.23 425.68 748.62 435.64 785.02C437.27 791 434.47 793.42 431.99 797.84L259.47 797.68C254.47 795.2 251.243 791.713 249.79 787.22C229.517 724.667 209.643 661.7 190.17 598.32C187.91 590.96 191.82 583.73 199.87 583.59C247.997 582.737 296.383 581.853 345.03 580.94L380.77 580.34ZM323.02 683.98C323.02 680.988 321.832 678.119 319.716 676.004C317.601 673.888 314.732 672.7 311.74 672.7C308.748 672.7 305.879 673.888 303.764 676.004C301.648 678.119 300.46 680.988 300.46 683.98C300.46 686.972 301.648 689.841 303.764 691.956C305.879 694.072 308.748 695.26 311.74 695.26C314.732 695.26 317.601 694.072 319.716 691.956C321.832 689.841 323.02 686.972 323.02 683.98Z" fill="#565656"/>
<path d="M414.2 675.03L441.45 771.93C441.663 774.823 442.247 777.677 443.2 780.49C444.59 784.57 445.79 788.16 450.84 788.2C461.507 788.293 472.663 788.167 484.31 787.82C485.517 787.78 486.307 787.397 486.68 786.67C492.853 788.73 499.477 788.727 506.55 786.66C509.877 787.6 512.963 788.027 515.81 787.94C521.923 787.76 527.437 787.687 532.35 787.72C552.87 787.87 573.3 787.58 594.11 787.6C596.243 787.6 598.433 787.517 600.68 787.35C602.96 787.177 605.15 787.023 607.25 786.89C610.78 787.08 615.32 786.64 618.16 787.97C621.727 789.643 622.217 792.91 619.63 797.77L431.99 797.84C434.47 793.42 437.27 791 435.64 785.02C425.68 748.62 414.757 708.23 402.87 663.85C396.33 639.45 389.65 615.087 382.83 590.76C381.86 587.33 381.37 583.88 380.77 580.34C385.003 580.433 387.65 582.333 388.71 586.04C397.197 615.68 405.693 645.343 414.2 675.03Z" fill="black"/>
<path d="M888.61 595L896.67 597.78C898.403 599.393 899.75 601.197 900.71 603.19C902.36 606.61 901.88 611.05 901.81 614.98C901.4 637.01 901.33 659.6 900.81 682C900.197 708.6 899.61 736.017 899.05 764.25C898.85 774.42 894.46 783.52 885.21 788.55C885.05 788.637 884.93 788.763 884.85 788.93C884.697 789.23 884.457 789.41 884.13 789.47L876 791.03C872.83 791.13 869.25 791.89 866.62 792.15C850.853 793.717 835.063 794.99 819.25 795.97C815.717 796.19 812.27 796.783 808.91 797.75L794.23 797.88L794.52 790.2C803.56 787.42 810.263 784.97 814.63 782.85C830.617 775.07 840.493 762.437 844.26 744.95C847.02 732.09 846.27 718.46 845.01 704.95C841.73 669.63 837.65 634.433 832.77 599.36C836.05 599.233 839.123 599.013 841.99 598.7C854.917 597.307 867.85 595.98 880.79 594.72C883.48 594.46 885.85 594.76 888.61 595Z" fill="#B19B7A"/>
<path d="M463.1 595.72C464.52 596.313 466.107 596.55 467.86 596.43C470.827 596.223 472.34 596.12 472.4 596.12C484.027 596.253 495.747 596.41 507.56 596.59L506.61 602.01C478.617 602.283 459.163 602.383 448.25 602.31C445.51 602.29 442.54 602.07 440.85 604.45C439.757 605.997 439.243 608.117 439.31 610.81C437.703 607.77 438.253 605.067 440.96 602.7C442.267 601.547 444.343 600.633 447.19 599.96C452.763 598.627 458.067 597.213 463.1 595.72Z" fill="#D8BE9C"/>
<path d="M425.85 601.55C427.217 599.657 428.627 597.767 430.08 595.88C430.127 595.813 430.163 595.82 430.19 595.9C430.197 595.92 430.203 595.94 430.21 595.96C430.223 596 430.22 596.037 430.2 596.07C428.827 598.37 427.493 600.287 426.2 601.82C423.667 604.813 423.55 604.723 425.85 601.55Z" fill="#AAC955"/>
<path d="M911.39 797.76L899.53 797.77L899.4 785.34C899.397 785.223 899.363 785.108 899.301 785.009C899.238 784.909 899.15 784.829 899.045 784.775C898.941 784.722 898.824 784.698 898.706 784.706C898.589 784.714 898.477 784.753 898.38 784.82C893.92 787.893 888.94 789.783 883.44 790.49C881.02 790.803 878.54 790.983 876 791.03L884.13 789.47C884.457 789.41 884.697 789.23 884.85 788.93C884.93 788.763 885.05 788.637 885.21 788.55C894.46 783.52 898.85 774.42 899.05 764.25C899.61 736.017 900.197 708.6 900.81 682C901.33 659.6 901.4 637.01 901.81 614.98C901.88 611.05 902.36 606.61 900.71 603.19C899.75 601.197 898.403 599.393 896.67 597.78C903.5 598.88 911.14 602.86 911.27 610.75C911.343 614.923 911.387 619.09 911.4 623.25C911.6 673.603 911.793 726.27 911.98 781.25C912.007 788.283 911.81 793.787 911.39 797.76Z" fill="#D8BE9C"/>
<path d="M498 753.92C496.527 755.413 494.817 757.067 492.87 758.88C488.483 762.967 484.567 767.32 481.12 771.94L441.45 771.93L414.2 675.03C413.873 670.837 414.193 665.953 415.16 660.38C416.12 654.84 419.77 645.34 425.76 643.45C436.427 642.823 447.117 641.09 457.83 638.25L486.76 637.86C487.153 637.853 487.463 638.01 487.69 638.33C488.323 639.21 488.87 640.17 489.33 641.21C496.71 657.94 498.25 677.85 498.26 696.5C498.273 715.46 498.187 734.6 498 753.92Z" fill="#DBB0CA"/>
<path d="M311.74 695.26C317.97 695.26 323.02 690.21 323.02 683.98C323.02 677.75 317.97 672.7 311.74 672.7C305.51 672.7 300.46 677.75 300.46 683.98C300.46 690.21 305.51 695.26 311.74 695.26Z" fill="white"/>
<path d="M143.78 724.37L153.52 726.95C157.273 730.243 159.557 734.22 160.37 738.88C160.923 742.02 161.277 745.157 161.43 748.29C159.11 748.683 156.95 748.883 154.95 748.89C146.763 748.91 137.153 748.73 126.12 748.35C126.433 746.457 126.687 744.48 126.88 742.42C127.133 739.713 127.45 737.757 127.83 736.55C130.097 729.317 135.413 725.257 143.78 724.37Z" fill="#4C4C4C"/>
<path d="M556.58 731.36C574.527 733 591.893 737.157 608.68 743.83C611.32 746.397 613.5 749.78 615.22 753.98C618.273 761.413 621.017 769.01 623.45 776.77C619.9 776.32 614.88 776.38 613.65 778.66C612.83 780.187 611.907 781.487 610.88 782.56C603.573 785.033 595.523 786.053 586.73 785.62C573.57 784.98 561.92 778.89 552.57 769.83C551.597 768.377 550.613 767.807 549.62 768.12C547.047 768.947 543.58 770.577 539.22 773.01C528.707 778.663 517.817 783.213 506.55 786.66C499.477 788.727 492.853 788.73 486.68 786.67C482.07 783.06 477.53 778.01 481.12 771.94C484.567 767.32 488.483 762.967 492.87 758.88C494.817 757.067 496.527 755.413 498 753.92L502.94 749.46C514.63 740.7 525.92 733.09 539.77 731.52C544.097 731.027 549.7 730.973 556.58 731.36ZM539.04 739.47L539.05 739.1C539.057 738.907 538.963 738.827 538.77 738.86C531.423 740.053 524.5 742.76 518 746.98C510.92 751.567 503.277 757.483 495.07 764.73C492.37 767.117 489.803 769.78 487.37 772.72C487.323 772.773 487.333 772.813 487.4 772.84L487.73 772.95C487.837 772.99 487.93 772.97 488.01 772.89C497.72 763.06 507.59 754.67 520.04 746.7C526.16 742.78 532.46 740.403 538.94 739.57C539 739.563 539.033 739.53 539.04 739.47ZM492.29 783.65C505.76 768.65 521.92 755.24 542.87 753.53C543.063 753.517 543.153 753.41 543.14 753.21L543.12 752.95C543.12 752.89 543.09 752.863 543.03 752.87C535.043 753.35 527.763 755.4 521.19 759.02C510.223 765.053 500.4 773.197 491.72 783.45C491.687 783.483 491.69 783.513 491.73 783.54L491.97 783.69C492.021 783.723 492.081 783.737 492.14 783.73C492.199 783.722 492.252 783.694 492.29 783.65Z" fill="#E7BA8F"/>
<path d="M538.94 739.57C532.46 740.403 526.16 742.78 520.04 746.7C507.59 754.67 497.72 763.06 488.01 772.89C487.93 772.97 487.837 772.99 487.73 772.95L487.4 772.84C487.333 772.813 487.323 772.773 487.37 772.72C489.803 769.78 492.37 767.117 495.07 764.73C503.277 757.483 510.92 751.567 518 746.98C524.5 742.76 531.423 740.053 538.77 738.86C538.963 738.827 539.057 738.907 539.05 739.1L539.04 739.47C539.033 739.53 539 739.563 538.94 739.57Z" fill="#AAC955"/>
<path d="M126.12 748.35C137.153 748.73 146.763 748.91 154.95 748.89C156.95 748.883 159.11 748.683 161.43 748.29C166.843 748.223 172.14 748.177 177.32 748.15C182.56 748.13 186.453 748.6 189 749.56C195.087 751.853 199.203 756.39 201.35 763.17C204.263 772.35 207.563 783.873 211.25 797.74L77.96 797.85C80.76 787.603 83.5733 777.437 86.4 767.35C87.82 762.29 89.13 758.867 90.33 757.08C92.6166 753.68 95.7966 751.153 99.87 749.5C102.07 748.607 106.05 748.17 111.81 748.19C116.357 748.203 121.127 748.257 126.12 748.35Z" fill="#081817"/>
<path d="M542.87 753.53C521.92 755.24 505.76 768.65 492.29 783.65C492.252 783.694 492.199 783.722 492.14 783.73C492.081 783.737 492.021 783.723 491.97 783.69L491.73 783.54C491.69 783.513 491.687 783.483 491.72 783.45C500.4 773.197 510.223 765.053 521.19 759.02C527.763 755.4 535.043 753.35 543.03 752.87C543.09 752.863 543.12 752.89 543.12 752.95L543.14 753.21C543.153 753.41 543.063 753.517 542.87 753.53Z" fill="#AAC955"/>
<path d="M552.57 769.83L539.22 773.01C543.58 770.577 547.047 768.947 549.62 768.12C550.613 767.807 551.597 768.377 552.57 769.83Z" fill="#AAC955"/>
<path d="M794.52 790.2L794.23 797.88L742.28 797.82C744.56 797.427 746.883 797.307 749.25 797.46C749.87 797.5 751.013 797.25 752.68 796.71C753.873 796.323 755.007 796.073 756.08 795.96C769.04 794.587 781.853 792.667 794.52 790.2Z" fill="#6B4E3E"/>
<path d="M77.96 797.85L211.25 797.74L259.47 797.68L431.99 797.84L619.63 797.77L646.71 797.76L742.28 797.82L794.23 797.88L808.91 797.75L899.53 797.77L911.39 797.76L944.76 797.8C945.773 797.8 946.49 798.263 946.91 799.19C947.137 799.697 947.097 800.283 946.79 800.95C946.644 801.274 946.407 801.55 946.107 801.743C945.807 801.936 945.458 802.039 945.1 802.04L78.96 802C78.7119 802 78.4663 801.951 78.2379 801.854C78.0094 801.758 77.8028 801.617 77.6302 801.44C77.4576 801.263 77.3226 801.053 77.2332 800.823C77.1438 800.592 77.1019 800.347 77.11 800.1C77.13 799.247 77.4133 798.497 77.96 797.85Z" fill="#1F2627"/>
</svg>
